<svg width="377" height="210" viewBox="0 0 377 210" fill="none" xmlns="http://www.w3.org/2000/svg">
<path d="M374.072 167.545C372.14 158.676 368.951 150.289 364.7 142.576C364.12 141.516 363.443 140.359 362.767 139.299C357.839 131.104 351.752 123.777 344.699 117.415C343.829 116.547 342.863 115.776 341.897 115.004C334.36 108.738 325.76 103.629 316.485 99.9652C315.325 99.4832 314.166 99.0976 313.006 98.712C303.73 95.4342 293.682 93.6025 283.343 93.4097C282.763 93.4097 282.087 93.4097 281.507 93.4097C280.927 93.4097 280.251 93.4097 279.671 93.4097C269.236 93.6025 259.284 95.4342 250.008 98.712C248.848 99.0976 247.689 99.5796 246.529 99.9652C237.254 103.629 228.654 108.738 221.118 115.004C220.151 115.776 219.185 116.643 218.316 117.415C211.262 123.777 205.078 131.104 200.247 139.299C199.571 140.359 198.991 141.516 198.315 142.576C194.063 150.289 190.875 158.676 188.942 167.545C188.652 168.799 188.459 170.052 188.169 171.305C187.203 176.704 186.72 182.199 186.72 187.791H376.198C376.198 182.199 375.715 176.608 374.748 171.305C374.555 170.052 374.362 168.799 374.072 167.545Z" fill="#0F264C"/>
<path d="M9.62695 174.056C9.62695 193.606 20.857 209.401 34.6687 209.401H59.7104C73.522 209.401 84.623 193.476 84.623 174.056C84.623 154.506 73.3929 138.711 59.5813 138.711C59.3231 138.711 59.194 138.711 58.9359 138.711H34.6687C20.7279 138.711 9.62695 154.636 9.62695 174.056Z" fill="#402B2B"/>
<path d="M205.828 173.667C205.828 193.217 217.058 209.013 230.87 209.013H255.912C269.723 209.013 280.824 193.088 280.824 173.667C280.824 154.118 269.594 138.322 255.782 138.322C255.524 138.322 255.395 138.322 255.137 138.322H230.87C216.929 138.322 205.828 154.118 205.828 173.667Z" fill="#F48767"/>
<path d="M7.94922 170.69L108.761 170.431L97.1441 163.569L20.8573 163.699L7.94922 170.69Z" fill="#402B2B"/>
<path d="M-87.1836 113.076L-87.0545 177.941L-5.21719 177.811L20.8571 163.699L97.144 163.569L120.637 177.552L287.151 177.164C289.862 177.164 292.056 174.963 292.056 172.244L291.927 112.3L-87.1836 113.076Z" fill="#F36F49"/>
<path d="M91.2075 127.836L221.837 127.577L221.579 8.85318C221.579 4.06281 217.707 0.178711 212.802 0.178711L90.8203 0.437666L91.2075 127.836Z" fill="#F48767"/>
<path d="M-112.483 128.353L91.0775 127.964L90.8194 0.566406L-104.093 0.954799C-108.869 0.954799 -112.741 4.83887 -112.741 9.75871L-112.483 128.353Z" fill="#F06A5B"/>
<path d="M189.307 173.667C189.307 193.217 178.206 209.013 164.394 209.013H139.482V197.101C130.317 197.101 122.83 186.614 122.83 173.667C122.83 160.721 130.188 150.233 139.352 150.233V138.322H164.265C178.077 138.452 189.178 154.247 189.307 173.667Z" fill="#F48767"/>
<path d="M118.83 173.927C118.83 189.981 127.995 202.928 139.354 202.799C150.713 202.799 159.749 189.852 159.749 173.797C159.749 157.743 150.584 144.796 139.225 144.926C127.995 144.926 118.83 157.873 118.83 173.927Z" fill="#F48767"/>
<path d="M139.352 192.958C146.839 192.958 152.777 184.413 152.777 173.797C152.777 163.18 146.71 154.765 139.223 154.765C131.737 154.765 125.799 163.31 125.799 173.926C125.799 184.543 131.866 192.958 139.352 192.958ZM139.352 162.533C143.741 162.533 147.355 167.582 147.355 173.797C147.355 180.011 143.741 185.19 139.352 185.19C134.964 185.19 131.349 180.141 131.349 173.926C131.349 167.582 134.835 162.533 139.352 162.533Z" fill="#F7A58D"/>
<path d="M139.352 209.142C153.164 209.142 164.265 193.217 164.265 173.797C164.265 154.377 153.035 138.452 139.223 138.452C125.412 138.452 114.311 154.377 114.311 173.797C114.311 193.217 125.67 209.272 139.352 209.142ZM139.223 144.925C150.582 144.925 159.747 157.872 159.747 173.797C159.747 189.851 150.711 202.798 139.352 202.798C127.993 202.798 118.828 189.851 118.828 173.926C118.828 157.872 127.993 144.925 139.223 144.925Z" fill="#F7A58D"/>
<path d="M135.867 173.797C135.867 171.078 137.416 169.007 139.223 169.007C141.03 169.007 142.579 171.208 142.708 173.797C142.708 176.516 141.16 178.588 139.352 178.588C137.416 178.717 135.867 176.516 135.867 173.797Z" fill="#F48766"/>
<path d="M308.319 76.946C308.319 77.4639 308.707 77.8523 309.094 77.9818C310.127 78.2407 313.999 78.2407 315.161 77.8523C315.677 77.7228 316.193 77.3344 316.193 76.6871C316.581 66.3295 316.581 56.2309 316.193 46.6501C316.193 46.0028 315.677 45.6144 315.161 45.4849C313.87 45.0965 309.352 44.8376 307.932 45.3554C307.416 45.4849 307.029 46.0028 307.029 46.5207C306.77 56.3604 307.158 66.459 308.319 76.946Z" fill="#F69276"/>
<path d="M301.996 86.1463C302.125 86.1463 302.254 86.1463 302.512 86.0168L311.29 81.6148C313.355 80.5791 314.646 78.5076 314.646 76.1772L314.517 43.6803C314.517 42.3856 313.484 41.3499 312.193 41.3499H288.055C287.41 41.3499 287.022 41.8677 287.022 42.3856C287.022 43.0329 287.539 43.4213 288.055 43.4213H312.193C312.322 43.4213 312.322 43.5508 312.322 43.5508L312.451 76.0477C312.451 77.6013 311.548 78.896 310.257 79.5434L301.48 83.9453C300.963 84.2043 300.705 84.8516 300.963 85.3695C301.221 86.0168 301.609 86.1463 301.996 86.1463Z" fill="#F69276"/>
<path d="M108.761 127.576C108.761 127.576 112.117 127.576 117.281 127.576H137.805C153.165 127.576 156.779 135.215 166.202 153.988L196.02 153.859C196.02 153.859 196.02 151.658 196.02 147.903L309.869 147.644C310.386 138.193 311.418 119.031 311.418 100.906C311.418 100.258 311.418 99.7404 311.418 99.0931C311.418 93.9143 310.515 88.2177 308.966 82.521C302.899 60.2523 287.538 36.5593 281.213 27.8849C279.148 25.0366 277.341 22.5767 275.792 20.3757C271.403 14.5496 268.434 11.5718 262.884 11.5718L124.896 11.9602C122.057 11.9602 119.475 13.9022 118.701 16.6211C106.825 60.3817 108.632 93.6554 108.761 127.576ZM225.063 27.367C224.934 26.7197 225.45 26.2018 226.096 26.2018L268.047 26.0723C270.5 26.0723 272.952 27.367 274.501 29.568C290.895 51.9662 297.478 72.4224 299.93 84.2041L302.512 96.6332C302.899 98.4457 301.737 99.8699 299.93 99.8699H289.733C288.055 99.8699 286.248 99.0931 284.957 97.7984L264.046 77.7306C261.722 75.5296 258.624 74.235 255.655 74.235H230.614L225.063 27.367Z" fill="#F36F49"/>
<path d="M203.376 82.91C204.28 87.0531 205.312 91.3256 206.216 95.857C206.861 98.9643 209.572 101.165 212.67 101.295C253.459 102.719 287.279 102.848 311.417 101.036C311.417 100.388 311.417 99.8706 311.417 99.2232C311.417 94.0444 310.513 88.3478 308.964 82.6511L203.376 82.91Z" fill="#F6977C"/>
<path d="M127.993 26.3316L169.945 26.2021C172.397 26.2021 174.592 27.4969 175.753 29.6978C187.5 52.0961 189.952 72.5522 189.952 84.334V96.763C189.952 98.5756 188.532 99.9998 186.725 99.9998H176.528C174.85 99.9998 173.172 99.2229 172.139 97.9283L155.359 77.8605C153.422 75.6595 150.712 74.2354 147.743 74.3648H122.701L126.703 27.4968C126.703 26.8495 127.219 26.3316 127.993 26.3316Z" fill="#F36F49"/>
<path d="M108.761 127.576C108.761 127.576 112.117 127.576 117.281 127.576H137.805C153.165 127.576 156.779 135.215 166.202 153.988L196.02 153.859C196.02 153.859 196.02 151.658 196.02 147.903L309.869 147.644C310.386 138.193 311.418 119.031 311.418 100.906C287.28 102.718 253.332 102.718 212.671 101.165C209.574 101.035 206.863 98.8342 206.217 95.7269C205.314 91.1955 204.281 86.7935 203.378 82.78C197.827 59.0871 191.76 42.1266 183.757 23.7419C183.112 22.3177 184.145 20.6346 185.694 20.6346L275.792 20.3757C271.403 14.5496 268.434 11.5718 262.884 11.5718L124.896 11.9602C122.057 11.9602 119.475 13.9022 118.701 16.6211C106.825 60.3817 108.632 93.6554 108.761 127.576ZM122.573 74.3644L126.574 27.4965C126.574 26.8492 127.22 26.3313 127.865 26.3313L169.817 26.2018C172.269 26.2018 174.463 27.4965 175.625 29.6975C187.372 52.0957 189.824 72.5518 189.824 84.3336V96.7626C189.824 98.5752 188.404 99.9994 186.597 99.9994H176.4C174.722 99.9994 173.044 99.2225 172.011 97.9279L155.23 77.8601C153.294 75.6591 150.584 74.235 147.615 74.3644H122.573Z" fill="#F7A58D"/>
<path d="M113.794 124.211C113.794 126.153 115.343 127.577 117.279 127.577H137.803C153.164 127.577 156.778 135.215 166.201 153.988L196.019 153.859C196.019 153.859 196.019 151.658 196.019 147.903L195.89 95.4683C195.89 69.445 191.243 53.0024 178.98 26.979C177.173 23.0949 173.171 20.635 168.912 20.635L124.508 20.7644C123.475 20.7644 122.701 21.4118 122.442 22.3181C113.665 55.7212 113.665 110.098 113.794 124.211ZM122.572 74.3648L126.573 27.4969C126.573 26.8495 127.218 26.3317 127.864 26.3317L169.815 26.2022C172.268 26.2022 174.462 27.4969 175.624 29.6979C187.37 52.0961 189.823 72.5522 189.823 84.3339V96.763C189.823 98.5756 188.403 99.9997 186.596 99.9997H176.398C174.72 99.9997 173.042 99.2229 172.01 97.9282L155.229 77.8605C153.293 75.6595 150.582 74.2353 147.613 74.3648H122.572Z" fill="#F58A6B"/>
<path d="M128.252 27.8852L169.945 27.7558C171.752 27.7558 173.43 28.7916 174.334 30.3452C186.467 53.5202 188.403 74.1059 188.403 84.2045V96.6336C188.403 97.5398 187.629 98.3167 186.725 98.3167H176.528C175.237 98.3167 174.075 97.7988 173.301 96.8925L156.52 76.8247C154.326 74.2353 151.099 72.6817 147.614 72.6817H124.379L128.252 27.8852ZM127.993 26.3316C127.348 26.3316 126.703 26.8495 126.703 27.4968L122.701 74.3648H147.743C150.712 74.3648 153.422 75.6595 155.359 77.8605L172.139 97.9283C173.172 99.2229 174.85 99.9998 176.528 99.9998H186.725C188.532 99.9998 189.952 98.5756 189.952 96.763V84.334C189.952 72.5522 187.5 52.0961 175.753 29.6978C174.592 27.4969 172.397 26.2021 169.945 26.2021L127.993 26.3316Z" fill="#F7A58D"/>
<path d="M195.892 123.175V147.903L240.941 147.774C240.425 141.3 239.263 135.086 237.327 129.26C236.552 126.929 234.616 125.246 232.163 124.858C222.224 123.692 209.574 123.175 195.892 123.175ZM287.023 147.774H309.354C309.741 142.336 310.128 133.532 310.515 123.563C305.094 123.822 300.06 124.34 295.542 124.987C293.09 125.376 291.153 127.059 290.379 129.389C288.572 135.086 287.539 141.3 287.023 147.774Z" fill="#F6977C"/>
<path d="M196.02 172.762L300.446 172.503C307.545 172.503 313.354 166.676 313.354 159.556V157.355C313.354 155.283 311.676 153.729 309.74 153.729L196.149 153.988L196.02 172.762Z" fill="#F6977C"/>
<path d="M176.787 172.762H196.02V153.989H166.461L169.688 167.065C170.462 170.431 173.431 172.762 176.787 172.762Z" fill="#F7A58D"/>
<path d="M130.833 104.273C135.222 104.402 143.741 105.308 143.741 108.416C143.741 111.523 136.255 112.559 130.188 112.559C124.121 112.559 123.475 109.192 122.959 107.768C122.572 106.344 122.185 104.143 130.833 104.273Z" fill="#F6977C"/>
<path d="M131.221 107.631C129.156 107.631 126.961 106.985 125.929 105.952C126.703 105.564 127.865 105.177 129.672 105.177C133.028 105.177 138.45 105.564 141.289 106.856C140.902 107.114 139.869 107.631 138.191 107.631C136.126 107.631 133.415 107.631 131.221 107.631Z" fill="#F47B58"/>
<path d="M139.869 110.088C140.644 110.088 141.031 110.218 141.16 110.347C138.837 111.38 134.577 111.768 132.512 111.768C129.543 111.768 127.477 111.768 126.832 111.122C127.348 110.734 128.51 110.088 129.672 110.088C131.221 110.218 138.837 110.088 139.869 110.088Z" fill="#F47B58"/>
<path d="M196.02 148.033C196.02 151.787 196.02 153.988 196.02 153.988L309.482 153.729C309.482 153.729 309.611 151.528 309.869 147.774L196.02 148.033Z" fill="#F58A6B"/>
<g opacity="0.2">
<path d="M244.942 121.88V146.608L283.021 146.479V121.75C283.021 118.772 280.311 116.442 276.954 116.442H250.88C247.653 116.571 244.942 119.031 244.942 121.88Z" fill="#F16036"/>
</g>
<path d="M295.8 145.702H303.803C305.868 145.702 307.676 144.019 307.676 141.818V137.805C307.676 135.733 305.998 133.921 303.803 133.921H295.8C293.735 133.921 291.928 135.604 291.928 137.805V141.818C291.928 144.019 293.735 145.702 295.8 145.702Z" fill="white"/>
<path d="M220.027 145.961H228.03C230.095 145.961 231.902 144.278 231.902 142.077V138.064C231.902 135.992 230.224 134.18 228.03 134.18H220.027C217.961 134.18 216.154 135.863 216.154 138.064V142.077C216.154 144.149 217.832 145.961 220.027 145.961Z" fill="white"/>
<path d="M168.395 77.2058C168.395 77.7237 168.783 78.1121 169.17 78.2416C174.204 78.7595 179.496 78.7595 184.918 78.1121C185.563 77.9826 185.951 77.5942 185.951 76.9469C186.338 66.5894 186.338 56.4907 185.951 46.91C185.951 46.2627 185.434 45.8743 184.918 45.7448C179.367 45.0974 173.817 45.0974 168.008 45.7448C167.492 45.8743 167.105 46.3921 167.105 46.91C166.717 56.6202 167.234 66.7188 168.395 77.2058Z" fill="#F7A58D"/>
<path d="M188.402 86.406C188.789 86.406 189.177 86.147 189.306 85.7586C189.564 85.2407 189.306 84.5934 188.789 84.3344L180.012 80.062C178.721 79.4146 177.818 77.9904 177.818 76.5663L177.688 44.0694C177.688 43.9399 177.818 43.9399 177.818 43.9399H183.239C183.884 43.9399 184.272 43.422 184.272 42.9041C184.272 42.2568 183.755 41.8684 183.239 41.8684H177.818C176.527 41.8684 175.494 42.9041 175.494 44.1988L175.623 76.6957C175.623 79.0262 176.914 81.0977 178.979 82.1335L187.757 86.406C188.144 86.406 188.273 86.406 188.402 86.406Z" fill="#F69276"/>
<path d="M247.604 174.294L284.134 174.215L284.11 163.21L247.58 163.29L247.604 174.294Z" fill="#F8B4A0"/>
<path opacity="0.6" d="M183.508 24.1335C191.511 42.5182 197.449 59.4787 203.128 83.1716L308.716 82.9126C302.65 60.6439 287.289 36.951 280.964 28.2765C278.899 25.4282 277.092 22.9683 275.543 20.7673L185.444 21.0263C183.895 21.1558 182.862 22.7094 183.508 24.1335Z" fill="url(#paint0_linear_523_86)"/>
<path d="M120.325 186.208C118.427 177.447 115.297 169.162 111.123 161.543C110.554 160.496 109.889 159.353 109.225 158.306C104.387 150.211 98.4107 142.974 91.4854 136.689C90.6316 135.832 89.683 135.07 88.7343 134.308C81.3347 128.118 72.8916 123.071 63.7844 119.453C62.646 118.976 61.5077 118.596 60.3693 118.215C51.2621 114.977 41.396 113.168 31.2453 112.977C30.6761 112.977 30.012 112.977 29.4428 112.977C28.8736 112.977 28.2096 112.977 27.6404 112.977C17.3948 113.168 7.62355 114.977 -1.48362 118.215C-2.62202 118.596 -3.7604 119.072 -4.89879 119.453C-14.006 123.071 -22.4491 128.118 -29.8487 134.308C-30.7973 135.07 -31.746 135.927 -32.5998 136.689C-39.525 142.974 -45.5965 150.211 -50.3398 158.306C-51.0039 159.353 -51.5731 160.496 -52.2371 161.543C-56.4113 169.162 -59.5418 177.447 -61.4392 186.208C-61.7237 187.446 -61.9135 188.684 -62.1981 189.922C-63.1468 195.254 -63.6211 200.682 -63.6211 206.206H122.412C122.412 200.682 121.938 195.159 120.989 189.922C120.799 188.684 120.609 187.446 120.325 186.208Z" fill="#FCDDD4"/>
<defs>
<linearGradient id="paint0_linear_523_86" x1="232.764" y1="0.961529" x2="283.515" y2="122.26" gradientUnits="userSpaceOnUse">
<stop stop-color="#F7A58D"/>
<stop offset="0.926161" stop-color="white"/>
</linearGradient>
</defs>
</svg>
