<svg width="708" height="492" viewBox="0 0 708 492" fill="none" xmlns="http://www.w3.org/2000/svg">
<path d="M649.639 375.85C715.099 304.439 738.903 160.131 649.639 140.294C517.275 110.879 582.691 214.68 257.872 160.13C56.6284 126.334 71.9071 326.258 183.486 437.838C295.066 549.417 567.814 465.113 649.639 375.85Z" fill="#FCDDD4"/>
<mask id="mask0_422_5" style="mask-type:alpha" maskUnits="userSpaceOnUse" x="102" y="134" width="606" height="358">
<path d="M649.639 375.849C715.099 304.438 738.903 160.131 649.639 140.294C517.275 110.879 582.691 214.679 257.872 160.13C56.6284 126.334 71.9071 326.258 183.486 437.837C295.066 549.417 567.814 465.112 649.639 375.849Z" fill="#FCDDD4"/>
</mask>
<g mask="url(#mask0_422_5)">
<path opacity="0.7" d="M59.5098 343.019C91.9727 300.807 177.955 218.492 262.184 226.935C367.469 237.488 167.427 435.359 262.184 435.359C356.94 435.359 401.686 192.637 470.122 192.637C538.557 192.637 393.79 372.04 470.122 382.593C546.453 393.146 609.624 129.318 693.852 126.68C778.08 124.042 606.992 343.019 743.863 343.019" stroke="url(#paint0_linear_422_5)" stroke-width="2"/>
<path d="M782.975 448.54C782.975 476.134 767.129 498.428 747.641 498.428H712.307C692.819 498.428 677.155 475.951 677.155 448.54C677.155 420.946 693.001 398.651 712.489 398.651C712.853 398.651 713.036 398.651 713.4 398.651H747.641C767.311 398.651 782.975 421.128 782.975 448.54Z" fill="#402B2B"/>
<path d="M506.135 447.991C506.135 475.586 490.289 497.88 470.801 497.88H435.467C415.979 497.88 400.316 475.403 400.316 447.991C400.316 420.397 416.161 398.103 435.649 398.103C436.014 398.103 436.196 398.103 436.56 398.103H470.801C490.471 398.103 506.135 420.397 506.135 447.991Z" fill="#F48767"/>
<path d="M785.341 443.789L643.095 443.423L659.487 433.738L767.128 433.921L785.341 443.789Z" fill="#402B2B"/>
<path d="M919.573 362.469L919.391 454.023L803.919 453.84L767.128 433.921L659.488 433.739L626.339 453.475L391.388 452.926C387.563 452.926 384.467 449.82 384.467 445.982L384.649 361.373L919.573 362.469Z" fill="#F36F49"/>
<path d="M667.864 383.301L483.545 382.936L483.91 215.361C483.91 208.599 489.374 203.117 496.295 203.117L668.41 203.483L667.864 383.301Z" fill="#F48767"/>
<path d="M955.271 384.031L668.047 383.483L668.411 203.665L943.432 204.213C950.171 204.213 955.635 209.695 955.635 216.639L955.271 384.031Z" fill="#F06A5B"/>
<path d="M529.446 447.991C529.446 475.586 545.109 497.88 564.597 497.88H599.749V481.068C612.68 481.068 623.244 466.266 623.244 447.991C623.244 429.717 612.863 414.915 599.931 414.915V398.103H564.779C545.291 398.286 529.628 420.58 529.446 447.991Z" fill="#F48767"/>
<path d="M628.888 448.357C628.888 471.017 615.956 489.292 599.929 489.109C583.901 489.109 571.152 470.835 571.152 448.175C571.152 425.515 584.083 407.24 600.111 407.423C615.956 407.423 628.888 425.697 628.888 448.357Z" fill="#F48767"/>
<path d="M599.932 475.22C589.368 475.22 580.99 463.159 580.99 448.174C580.99 433.189 589.55 421.311 600.114 421.311C610.678 421.311 619.056 433.372 619.056 448.357C619.056 463.342 610.495 475.22 599.932 475.22ZM599.932 432.275C593.739 432.275 588.639 439.402 588.639 448.174C588.639 456.946 593.739 464.255 599.932 464.255C606.124 464.255 611.224 457.128 611.224 448.357C611.224 439.402 606.306 432.275 599.932 432.275Z" fill="#F7A58D"/>
<path d="M599.931 498.063C580.443 498.063 564.779 475.586 564.779 448.174C564.779 420.763 580.625 398.286 600.113 398.286C619.601 398.286 635.265 420.763 635.265 448.174C635.265 475.586 619.237 498.246 599.931 498.063ZM600.113 407.423C584.085 407.423 571.154 425.697 571.154 448.174C571.154 470.834 583.903 489.108 599.931 489.108C615.959 489.108 628.89 470.834 628.89 448.357C628.89 425.697 615.959 407.423 600.113 407.423Z" fill="#F7A58D"/>
<path d="M604.848 448.174C604.848 444.337 602.662 441.413 600.112 441.413C597.562 441.413 595.377 444.519 595.195 448.174C595.195 452.012 597.38 454.936 599.93 454.936C602.662 455.119 604.848 452.012 604.848 448.174Z" fill="#5B2929"/>
<path d="M361.52 311.472C361.52 312.203 360.974 312.751 360.427 312.934C358.97 313.3 353.506 313.3 351.867 312.751C351.138 312.569 350.41 312.02 350.41 311.107C349.864 296.487 349.864 282.233 350.41 268.71C350.41 267.797 351.138 267.248 351.867 267.066C353.688 266.517 360.063 266.152 362.066 266.883C362.795 267.066 363.341 267.797 363.341 268.528C363.706 282.416 363.159 296.67 361.52 311.472Z" fill="#F69276"/>
<path d="M370.443 324.458C370.261 324.458 370.079 324.458 369.714 324.275L357.329 318.062C354.415 316.6 352.594 313.676 352.594 310.387L352.776 264.519C352.776 262.691 354.233 261.229 356.054 261.229H390.113C391.024 261.229 391.57 261.96 391.57 262.691C391.57 263.605 390.842 264.153 390.113 264.153H356.054C355.872 264.153 355.872 264.336 355.872 264.336L355.69 310.204C355.69 312.397 356.965 314.225 358.786 315.138L371.171 321.351C371.9 321.717 372.264 322.631 371.9 323.362C371.536 324.275 370.989 324.458 370.443 324.458Z" fill="#F69276"/>
<path d="M643.095 382.935C643.095 382.935 638.36 382.935 631.074 382.935H602.115C580.441 382.935 575.342 393.717 562.046 420.215L519.973 420.032C519.973 420.032 519.973 416.925 519.973 411.626L359.332 411.26C358.604 397.92 357.146 370.874 357.146 345.29C357.146 344.377 357.146 343.646 357.146 342.732C357.146 335.422 358.421 327.382 360.607 319.341C369.167 287.909 390.841 254.467 399.766 242.224C402.68 238.203 405.23 234.731 407.415 231.625C413.608 223.401 417.797 219.198 425.628 219.198L620.328 219.746C624.335 219.746 627.978 222.488 629.071 226.325C645.827 288.092 643.277 335.057 643.095 382.935ZM478.993 241.493C479.175 240.579 478.447 239.848 477.536 239.848L418.343 239.665C414.883 239.665 411.422 241.493 409.236 244.599C386.106 276.214 376.817 305.087 373.356 321.717L369.714 339.26C369.167 341.818 370.806 343.828 373.356 343.828H387.745C390.112 343.828 392.662 342.732 394.484 340.905L423.989 312.579C427.268 309.473 431.639 307.645 435.828 307.645H471.162L478.993 241.493Z" fill="#F36F49"/>
<path d="M509.594 319.89C508.319 325.738 506.862 331.768 505.587 338.164C504.676 342.55 500.851 345.657 496.48 345.839C438.926 347.849 391.207 348.032 357.149 345.474C357.149 344.56 357.149 343.829 357.149 342.915C357.149 335.606 358.423 327.565 360.609 319.524L509.594 319.89Z" fill="#F6977C"/>
<path d="M615.959 240.031L556.766 239.848C553.306 239.848 550.209 241.676 548.57 244.782C531.996 276.397 528.536 305.27 528.536 321.9V339.443C528.536 342.001 530.539 344.012 533.089 344.012H547.477C549.845 344.012 552.213 342.915 553.67 341.088L577.347 312.763C580.079 309.656 583.904 307.646 588.093 307.829H623.427L617.781 241.676C617.781 240.762 617.052 240.031 615.959 240.031Z" fill="#F36F49"/>
<path d="M643.095 382.935C643.095 382.935 638.36 382.935 631.074 382.935H602.115C580.441 382.935 575.342 393.717 562.046 420.215L519.973 420.032C519.973 420.032 519.973 416.925 519.973 411.626L359.332 411.26C358.604 397.92 357.146 370.874 357.146 345.29C391.205 347.849 439.106 347.849 496.478 345.656C500.849 345.473 504.674 342.366 505.585 337.981C506.86 331.585 508.317 325.371 509.592 319.706C517.423 286.265 525.984 262.325 537.276 236.376C538.186 234.366 536.729 231.99 534.544 231.99L407.415 231.625C413.608 223.401 417.797 219.198 425.628 219.198L620.328 219.746C624.335 219.746 627.978 222.488 629.071 226.325C645.827 288.092 643.277 335.057 643.095 382.935ZM623.607 307.828L617.961 241.676C617.961 240.762 617.05 240.031 616.139 240.031L556.946 239.848C553.486 239.848 550.389 241.676 548.75 244.782C532.176 276.397 528.716 305.27 528.716 321.899V339.443C528.716 342.001 530.719 344.011 533.269 344.011H547.657C550.025 344.011 552.393 342.915 553.85 341.087L577.527 312.762C580.259 309.656 584.084 307.645 588.273 307.828H623.607Z" fill="#F7A58D"/>
<path d="M635.994 378.184C635.994 380.925 633.808 382.935 631.076 382.935H602.117C580.443 382.935 575.344 393.717 562.048 420.215L519.975 420.032C519.975 420.032 519.975 416.926 519.975 411.626L520.157 337.615C520.157 300.884 526.714 277.676 544.017 240.945C546.567 235.463 552.213 231.99 558.223 231.99L620.877 232.173C622.334 232.173 623.427 233.087 623.791 234.366C636.176 281.514 636.176 358.265 635.994 378.184ZM623.609 307.828L617.963 241.676C617.963 240.762 617.052 240.031 616.142 240.031L556.948 239.848C553.488 239.848 550.392 241.676 548.752 244.782C532.178 276.397 528.718 305.27 528.718 321.9V339.443C528.718 342.001 530.721 344.011 533.271 344.011H547.66C550.027 344.011 552.395 342.915 553.852 341.088L577.529 312.762C580.261 309.656 584.086 307.646 588.275 307.828H623.609Z" fill="#F58A6B"/>
<path d="M615.595 242.224L556.766 242.041C554.216 242.041 551.849 243.503 550.574 245.696C533.453 278.407 530.721 307.463 530.721 321.717V339.26C530.721 340.539 531.814 341.636 533.089 341.636H547.477C549.299 341.636 550.938 340.905 552.031 339.626L575.708 311.301C578.804 307.646 583.358 305.453 588.275 305.453H621.059L615.595 242.224ZM615.959 240.031C616.87 240.031 617.781 240.762 617.781 241.676L623.427 307.829H588.093C583.904 307.829 580.079 309.656 577.347 312.763L553.67 341.088C552.213 342.915 549.845 344.012 547.477 344.012H533.089C530.539 344.012 528.536 342.001 528.536 339.443V321.9C528.536 305.27 531.996 276.397 548.57 244.782C550.209 241.676 553.306 239.848 556.766 239.848L615.959 240.031Z" fill="#F7A58D"/>
<path d="M520.155 376.722V411.626L456.591 411.443C457.319 402.306 458.959 393.534 461.691 385.311C462.783 382.021 465.515 379.646 468.976 379.098C483 377.453 500.849 376.722 520.155 376.722ZM391.569 411.443H360.061C359.514 403.768 358.968 391.341 358.421 377.27C366.071 377.636 373.174 378.367 379.549 379.28C383.009 379.829 385.741 382.204 386.834 385.494C389.384 393.534 390.841 402.306 391.569 411.443Z" fill="#F6977C"/>
<path d="M519.974 446.713L372.628 446.347C362.611 446.347 354.415 438.124 354.415 428.073V424.966C354.415 422.042 356.783 419.849 359.515 419.849L519.791 420.215L519.974 446.713Z" fill="#F6977C"/>
<path d="M547.112 446.713H519.974V420.215H561.683L557.129 438.672C556.036 443.424 551.847 446.713 547.112 446.713Z" fill="#F7A58D"/>
<path d="M611.952 350.042C605.759 350.225 593.738 351.504 593.738 355.89C593.738 360.276 604.302 361.738 612.862 361.738C621.423 361.738 622.333 356.987 623.062 354.976C623.608 352.966 624.155 349.86 611.952 350.042Z" fill="#F6977C"/>
<path d="M611.405 354.783C614.319 354.783 617.415 353.871 618.872 352.412C617.779 351.865 616.14 351.318 613.59 351.318C608.855 351.318 601.205 351.865 597.198 353.689C597.745 354.053 599.202 354.783 601.569 354.783C604.484 354.783 608.308 354.783 611.405 354.783Z" fill="#F47B58"/>
<path d="M599.201 358.251C598.108 358.251 597.562 358.433 597.38 358.616C600.658 360.074 606.669 360.621 609.583 360.621C613.772 360.621 616.686 360.621 617.597 359.71C616.868 359.163 615.229 358.251 613.59 358.251C611.404 358.433 600.658 358.251 599.201 358.251Z" fill="#F47B58"/>
<path d="M519.974 411.809C519.974 417.108 519.974 420.215 519.974 420.215L359.879 419.849C359.879 419.849 359.697 416.743 359.333 411.443L519.974 411.809Z" fill="#F58A6B"/>
<g opacity="0.2">
<path d="M450.944 374.894V409.798L397.215 409.615V374.712C397.215 370.509 401.04 367.219 405.775 367.219H442.566C447.12 367.402 450.944 370.874 450.944 374.894Z" fill="#F16036"/>
</g>
<path d="M379.184 408.519H367.892C364.978 408.519 362.428 406.144 362.428 403.037V397.372C362.428 394.448 364.796 391.89 367.892 391.89H379.184C382.099 391.89 384.648 394.265 384.648 397.372V403.037C384.648 406.144 382.099 408.519 379.184 408.519Z" fill="white"/>
<path d="M486.099 408.885H474.807C471.893 408.885 469.343 406.51 469.343 403.403V397.738C469.343 394.814 471.711 392.256 474.807 392.256H486.099C489.014 392.256 491.563 394.631 491.563 397.738V403.403C491.563 406.327 489.196 408.885 486.099 408.885Z" fill="white"/>
<path d="M558.952 311.838C558.952 312.569 558.406 313.118 557.86 313.3C550.756 314.031 543.289 314.031 535.639 313.118C534.729 312.935 534.182 312.387 534.182 311.473C533.636 296.854 533.636 282.6 534.182 269.077C534.182 268.163 534.911 267.615 535.639 267.432C543.471 266.518 551.303 266.518 559.499 267.432C560.227 267.615 560.774 268.346 560.774 269.077C561.32 282.782 560.592 297.036 558.952 311.838Z" fill="#F7A58D"/>
<path d="M530.723 324.824C530.177 324.824 529.631 324.459 529.448 323.91C529.084 323.179 529.448 322.266 530.177 321.9L542.562 315.87C544.383 314.956 545.658 312.946 545.658 310.936L545.84 265.067C545.84 264.885 545.658 264.885 545.658 264.885H538.009C537.098 264.885 536.552 264.154 536.552 263.423C536.552 262.509 537.28 261.961 538.009 261.961H545.658C547.479 261.961 548.937 263.423 548.937 265.25L548.754 311.118C548.754 314.408 546.933 317.332 544.019 318.794L531.634 324.824C531.088 324.824 530.905 324.824 530.723 324.824Z" fill="#F69276"/>
<path d="M447.189 448.876L395.646 448.764L395.679 433.231L447.223 433.343L447.189 448.876Z" fill="#F8B4A0"/>
<path opacity="0.6" d="M537.628 236.929C526.335 262.878 517.957 286.817 509.943 320.259L360.959 319.894C369.519 288.462 391.193 255.02 400.117 242.777C403.031 238.756 405.581 235.284 407.767 232.177L534.896 232.543C537.081 232.726 538.538 234.919 537.628 236.929Z" fill="url(#paint1_linear_422_5)"/>
<path d="M296.305 254.77C296.305 254.77 292.099 385.928 296.19 533.377C296.19 533.377 308.462 545.034 331.714 537.262C331.714 537.262 331.498 373.191 337.742 307.995C337.742 307.995 367.022 431.911 404.053 539.205C404.053 539.205 428.812 543.955 437.639 529.922C437.639 529.922 387.69 356.137 380.37 256.183L296.305 254.77Z" fill="url(#paint2_linear_422_5)"/>
<path d="M296.62 256.182H380.369C381.015 263.738 381.661 271.726 382.737 279.93C332.789 280.146 306.308 267.408 296.404 261.579C296.404 257.909 296.62 256.182 296.62 256.182Z" fill="#402B2B" fill-opacity="0.45" style="mix-blend-mode:multiply"/>
</g>
<path d="M305.021 38.7854H325.689L328.488 26.2645C328.488 26.2645 320.307 31.0138 318.369 27.7756C316.432 24.5375 316.862 25.8327 314.925 26.2645C312.987 26.6962 312.987 24.1057 310.619 25.6169C308.035 27.3439 304.16 35.5472 305.021 38.7854Z" fill="#6B1912"/>
<path d="M264.632 188.023L276.41 159.508L309.528 171.922C308.386 181.056 288.187 198.561 276.41 210.959L264.632 188.023Z" fill="url(#paint3_linear_422_5)"/>
<path d="M292.215 111.828C292.215 111.828 274.091 144.773 263.484 193.212C260.22 208.116 261.016 215.818 265.978 219.299C272.182 223.65 283.341 219.929 288.915 208.131C294.591 195.093 305.081 166.81 307.43 153.214C307.43 153.214 303.333 114.277 292.215 111.828Z" fill="url(#paint4_linear_422_5)"/>
<path d="M292.104 111.321C292.104 111.321 293.181 136.148 296.41 255.532C296.41 255.532 325.69 270.428 384.035 260.065C384.035 260.065 384.251 224.228 392.216 192.493C392.216 192.493 407.072 132.694 399.536 115.207C399.536 115.207 351.956 85.6308 292.104 111.321Z" fill="url(#paint5_linear_422_5)"/>
<path d="M337.315 87.6596L336.884 103.117C336.884 103.117 340.544 108.514 349.371 109.162C358.198 109.594 362.504 104.628 362.504 104.628L363.365 81.615C352.385 86.3644 341.621 88.3073 337.315 87.6596Z" fill="url(#paint6_linear_422_5)"/>
<path d="M338.177 81.3142L337.316 98.3687C341.621 99.0164 352.386 97.0735 363.151 92.3241L363.797 81.3142H338.177Z" fill="url(#paint7_linear_422_5)" style="mix-blend-mode:multiply"/>
<path d="M396.522 148.885C396.522 148.885 383.82 177.597 379.299 190.55C374.777 203.287 374.777 254.02 351.095 263.735C351.095 263.735 376.284 262.223 384.25 260.065C384.25 260.065 384.681 221.853 392.431 192.493C392.431 192.493 397.814 161.622 399.967 147.59L396.522 148.885Z" fill="#EE4D47" fill-opacity="0.29" style="mix-blend-mode:multiply"/>
<path d="M379.729 43.7522C379.299 43.9681 378.868 50.8762 378.868 50.8762L377.146 65.3403L369.18 71.6008L364.659 73.5437C364.659 73.5437 357.985 70.7372 358.846 68.1467C359.707 65.772 364.013 31.6628 364.874 31.6628C365.735 31.6628 372.625 36.6281 372.625 36.6281L379.729 43.7522Z" fill="#402B2B"/>
<path d="M316.649 30.7981C314.711 30.7981 317.725 54.5442 317.725 54.5442L321.17 45.0458L323.538 33.6044L316.649 30.7981Z" fill="#402B2B"/>
<path d="M319.877 35.546L316.217 65.9857C316.217 65.9857 314.925 91.676 336.024 93.1872C357.123 94.4825 371.548 73.5417 371.548 73.5417C371.548 73.5417 374.131 76.564 376.93 71.3828C379.513 66.2016 377.791 59.2933 374.131 58.6456C370.256 58.2139 368.533 60.3727 368.103 63.611C367.672 66.8492 367.242 69.224 367.242 69.224L364.012 68.7922L366.381 43.7496C366.381 43.7496 361.429 34.0348 355.831 32.0919C350.233 30.1489 345.282 37.9207 345.282 37.9207C345.282 37.9207 340.115 39.0001 335.163 37.9207C330.211 36.8413 326.982 35.546 326.982 35.546C326.982 35.546 323.967 36.4095 319.877 35.546Z" fill="url(#paint8_linear_422_5)"/>
<path d="M335.977 204.76C335.977 204.76 303.124 199.801 303.124 194.842C303.124 189.883 309.942 178.105 314.901 164.468C319.86 150.831 324.2 129.135 326.059 124.795C327.919 120.456 320.48 132.854 320.48 132.854C308.289 148.764 283.411 181.701 281.428 186.164C279.444 190.627 278.535 201.248 278.328 206L287.007 210.959L312.422 207.86L335.977 204.76Z" fill="#EE4D47" fill-opacity="0.29" style="mix-blend-mode:multiply"/>
<path d="M325.38 73.3455C325.38 70.8657 327.907 67.1598 332.199 68.3862C336.538 69.6264 337.571 73.3453 337.778 75.8248" stroke="#893D43"/>
<path d="M319.182 109.299C319.182 109.299 265.253 178.745 264.013 189.884C262.773 201.023 261.871 212.009 273.142 213.365C284.412 214.722 295.119 196.975 299.064 187.932L308.024 165.088L326.62 119.837L319.182 109.299Z" fill="url(#paint9_linear_422_5)"/>
<path d="M326.679 124.175C326.679 117.976 319.24 115.497 313.041 115.497L274.609 168.807C266.757 179.758 253.285 205.008 267.17 213.439C281.056 221.869 296.511 200.421 301.884 189.263C304.859 182.32 319.654 142.978 326.679 124.175Z" fill="url(#paint10_linear_422_5)"/>
<path d="M319.241 117.459C319.241 117.459 315.453 102.703 319.477 93.102C319.477 93.102 321.673 88.8082 324.041 90.6538C326.678 92.3553 328.75 88.4746 331.387 90.1761C334.024 91.8776 336.133 89.3612 338.746 92.6335C338.746 92.6335 341.719 91.7315 343.425 94.2782C345.132 96.8248 349.039 102.519 348.19 103.84C347.341 105.16 344.459 111.726 343.715 111.951C342.972 112.177 341.611 112.215 340.997 109.774C340.997 109.774 340.93 112.234 339.645 115C338.565 117.829 335.051 121.273 335.051 121.273L326.059 127.4L319.241 117.459Z" fill="url(#paint11_linear_422_5)"/>
<path d="M342.051 27.7644V5.74438C355.184 6.39203 368.748 8.98259 375.422 17.1861C383.388 26.9008 378.867 49.3525 378.867 49.3525C378.867 49.3525 369.178 48.2731 367.456 45.0349C365.734 41.7967 349.371 37.2631 336.884 37.9108C324.396 38.5584 318.368 37.2631 312.125 31.8661C310.833 30.7867 309.756 29.2755 308.895 27.5485H342.051V27.7644Z" fill="#402B2B"/>
<path d="M380.374 41.1602C380.374 41.1602 371.116 38.1378 355.615 36.8426C329.564 25.8327 318.369 27.7757 318.369 27.7757C318.369 27.7757 318.584 19.3564 320.952 13.5277C323.321 7.69892 339.253 -0.50448 352.601 0.790795C365.949 2.08607 379.728 12.0165 381.881 21.5151C383.603 28.855 380.374 41.1602 380.374 41.1602Z" fill="url(#paint12_linear_422_5)"/>
<path d="M364.658 37.9229C361.859 24.5398 341.837 17.8483 327.627 18.0641C313.633 18.28 303.73 29.9362 302.223 37.9229C301.577 41.1608 304.16 41.5925 305.022 38.7864C305.667 36.8436 306.959 27.5618 319.877 28.6411C332.795 29.7204 332.149 41.3767 338.608 42.456C344.636 43.5352 351.525 39.2181 364.658 37.9229Z" fill="url(#paint13_linear_422_5)"/>
<path d="M320.543 45.8426L319.872 44.4924C320.451 44.205 324.598 41.4229 330.571 39.8979L331.433 42.1155C326.327 42.9686 320.543 45.8426 320.543 45.8426Z" fill="#402B2B"/>
<path d="M357.198 51.5281C354.618 47.9188 348.465 43.8059 348.557 43.6112L350.256 42.0331C350.45 42.1255 355.927 46.1561 358.62 50.5343L357.198 51.5281Z" fill="#402B2B"/>
<path d="M336.24 53.6816C336.24 53.6816 335.594 58.2154 333.872 59.5107C332.15 60.8061 329.135 61.8856 328.705 62.9651C328.274 63.8286 329.135 65.5558 331.073 66.2035C333.011 66.8511 333.226 67.4988 333.226 67.4988C333.226 67.4988 329.351 67.9306 327.413 65.5558C325.475 63.181 327.628 61.2379 329.566 60.1585C331.504 59.079 332.365 58.6472 333.226 57.9995C334.303 57.3518 336.24 53.6816 336.24 53.6816Z" fill="#D87C60"/>
<path d="M345.496 56.0543C345.496 58.2132 347.003 60.1562 348.941 60.1562C350.879 60.1562 352.386 58.4291 352.386 56.0543C352.386 53.8954 350.879 51.9524 348.941 51.9524C347.003 51.9524 345.496 53.6795 345.496 56.0543Z" fill="#402B2B"/>
<path d="M321.815 53.2483C321.815 55.4073 323.322 57.3503 325.259 57.3503C327.197 57.3503 328.704 55.6232 328.704 53.2483C328.704 51.0893 327.197 49.1462 325.259 49.1462C323.322 49.3621 321.815 51.0893 321.815 53.2483Z" fill="#402B2B"/>
<path d="M310.136 214.68C308.483 211.993 305.425 204.513 306.416 196.083C308.483 198.976 312.119 206.745 310.136 214.68Z" fill="#644545"/>
<path fill-rule="evenodd" clip-rule="evenodd" d="M385.111 211.707C400.828 188.824 402.98 119.524 402.98 119.524C388.519 121.41 381.612 135.758 377.175 144.975C375.007 149.48 373.428 152.759 371.846 152.759L365.186 195.197L298.583 207.117C298.528 207.194 298.473 207.271 298.419 207.347C295.138 207.433 283.753 208.077 276.317 212.823C276.317 212.823 272.465 215.717 274.679 217.746C275.738 218.905 275.401 220.16 275.064 221.415C274.726 222.669 274.389 223.924 275.448 225.083C276.341 226.061 276.481 227.073 276.618 228.068C276.806 229.433 276.99 230.766 279.105 231.94C279.105 231.94 278.719 235.029 281.511 236.285C281.638 236.342 281.772 236.403 281.912 236.466C284.861 237.797 290.614 240.394 291.718 239.381C292.132 239 293.167 238.247 294.327 237.402C296.401 235.891 298.879 234.088 298.941 233.593C299.037 232.82 298.845 231.469 296.341 231.274C296.341 231.274 298.749 230.793 301.253 229.057C303.853 227.514 306.646 223.461 306.646 223.461L309.18 217.66C370.887 222.931 385.111 211.707 385.111 211.707Z" fill="url(#paint14_linear_422_5)"/>
<path d="M367.027 151.26L360.998 182.995L358.294 190.983L306.223 203.2C307.67 205.892 310.439 213.389 309.943 221.839C321.514 223.082 353.707 223.206 375.031 218.732C380.759 217.63 387.428 211.898 395.876 190.983C415.037 124.923 399.536 115.208 399.536 115.208C378.007 118.014 367.027 151.26 367.027 151.26Z" fill="url(#paint15_linear_422_5)"/>
<path d="M229.977 172.527C229.977 172.527 254.678 197.943 234.317 203.522C213.955 209.101 194.69 192.686 168.655 197.135C124.023 204.761 50.736 214.679 11.0634 140.293C-38.5274 47.3101 90.8899 10.1171 156.116 10.1174C234.363 10.1178 265.216 43.5912 272.655 89.4627C278.606 126.16 246.094 161.369 229.977 172.527Z" fill="url(#paint16_linear_422_5)"/>
<path d="M135.914 121.236L137.108 95.6577C141.888 94.4177 145.879 92.1422 149.081 88.8313C152.282 85.5203 154.135 81.3201 154.638 76.2307C155.231 70.243 154.616 65.4459 152.792 61.8392C150.979 58.1328 148.453 56.1193 145.214 55.7988C142.369 55.5171 140.062 56.2966 138.294 58.137C136.624 59.9872 135.18 62.5651 133.961 65.8707L131.336 72.8665C130.117 76.1721 128.354 78.4665 126.047 79.7497C123.848 80.9429 121.585 81.2732 119.26 80.7408C117.032 80.218 115.173 78.9759 113.683 77.0145C112.202 74.9534 111.619 72.3261 111.936 69.1327C112.331 65.1409 114.094 61.8388 117.227 59.2265C120.457 56.6238 124.409 54.7475 129.081 53.5975C133.753 52.4476 138.543 52.1154 143.45 52.601C153.362 53.5819 160.902 56.4948 166.072 61.3395C171.339 66.1939 173.548 72.9123 172.699 81.4946C172.116 87.3824 170.199 92.2313 166.948 96.0412C163.697 99.8511 159.686 102.83 154.915 104.978C150.252 107.036 145.447 108.525 140.5 109.446L138.564 121.499L135.914 121.236ZM132.506 157.177C128.973 156.827 126.054 155.279 123.75 152.531C121.543 149.794 120.618 146.628 120.973 143.036C121.319 139.543 122.842 136.671 125.542 134.419C128.351 132.076 131.521 131.08 135.054 131.43C138.685 131.789 141.55 133.383 143.649 136.21C145.855 138.948 146.786 142.063 146.44 145.556C146.084 149.149 144.556 152.071 141.856 154.323C139.254 156.585 136.137 157.536 132.506 157.177Z" fill="white"/>
<defs>
<linearGradient id="paint0_linear_422_5" x1="401.686" y1="199.737" x2="401.686" y2="503.4" gradientUnits="userSpaceOnUse">
<stop stop-color="#F37753"/>
<stop offset="1" stop-color="white" stop-opacity="0"/>
</linearGradient>
<linearGradient id="paint1_linear_422_5" x1="468.128" y1="204.222" x2="396.477" y2="375.415" gradientUnits="userSpaceOnUse">
<stop stop-color="#F7A58D"/>
<stop offset="0.926161" stop-color="white"/>
</linearGradient>
<linearGradient id="paint2_linear_422_5" x1="366.058" y1="175.914" x2="366.058" y2="539.979" gradientUnits="userSpaceOnUse">
<stop stop-color="#822626"/>
<stop offset="0.943497" stop-color="#402B2B"/>
</linearGradient>
<linearGradient id="paint3_linear_422_5" x1="283.001" y1="163.358" x2="283.001" y2="219.997" gradientUnits="userSpaceOnUse">
<stop stop-color="#FFB3B6"/>
<stop offset="1" stop-color="#FFC8C1"/>
</linearGradient>
<linearGradient id="paint4_linear_422_5" x1="307.47" y1="116.842" x2="307.41" y2="228.637" gradientUnits="userSpaceOnUse">
<stop stop-color="#F4A984"/>
<stop offset="1" stop-color="#EE4D47"/>
</linearGradient>
<linearGradient id="paint5_linear_422_5" x1="346.887" y1="38.7978" x2="346.887" y2="258.138" gradientUnits="userSpaceOnUse">
<stop stop-color="#F4A984"/>
<stop offset="1" stop-color="#EE4D47"/>
</linearGradient>
<linearGradient id="paint6_linear_422_5" x1="358.947" y1="102.004" x2="337.145" y2="111.386" gradientUnits="userSpaceOnUse">
<stop stop-color="#FFB3B6"/>
<stop offset="1" stop-color="#FFC8C1"/>
</linearGradient>
<linearGradient id="paint7_linear_422_5" x1="359.379" y1="91.1731" x2="337.454" y2="100.437" gradientUnits="userSpaceOnUse">
<stop stop-color="#FFB3B6" stop-opacity="0.31"/>
<stop offset="1" stop-color="#FFC8C1"/>
</linearGradient>
<linearGradient id="paint8_linear_422_5" x1="313.411" y1="85.7956" x2="318.092" y2="44.0596" gradientUnits="userSpaceOnUse">
<stop stop-color="#FFB3B6"/>
<stop offset="1" stop-color="#FFC8C1"/>
</linearGradient>
<linearGradient id="paint9_linear_422_5" x1="302.657" y1="84.5034" x2="302.657" y2="211.367" gradientUnits="userSpaceOnUse">
<stop stop-color="#FFB3B6"/>
<stop offset="1" stop-color="#FFC8C1"/>
</linearGradient>
<linearGradient id="paint10_linear_422_5" x1="275.848" y1="141.532" x2="322.29" y2="209.753" gradientUnits="userSpaceOnUse">
<stop stop-color="#F4A984"/>
<stop offset="0.91698" stop-color="#EE4D47"/>
</linearGradient>
<linearGradient id="paint11_linear_422_5" x1="329.5" y1="114.916" x2="347.06" y2="84.8816" gradientUnits="userSpaceOnUse">
<stop stop-color="#FFB3B6"/>
<stop offset="1" stop-color="#FFC8C1"/>
</linearGradient>
<linearGradient id="paint12_linear_422_5" x1="350.378" y1="-21.0972" x2="350.378" y2="41.6713" gradientUnits="userSpaceOnUse">
<stop stop-color="#F4A984"/>
<stop offset="1" stop-color="#EE4D47"/>
</linearGradient>
<linearGradient id="paint13_linear_422_5" x1="352.015" y1="11.8444" x2="352.015" y2="77.092" gradientUnits="userSpaceOnUse">
<stop stop-color="#F4A984"/>
<stop offset="1" stop-color="#EE4D47"/>
</linearGradient>
<linearGradient id="paint14_linear_422_5" x1="381.777" y1="179.64" x2="270.115" y2="216.775" gradientUnits="userSpaceOnUse">
<stop stop-color="#FFB3B6"/>
<stop offset="1" stop-color="#FFC8C1"/>
</linearGradient>
<linearGradient id="paint15_linear_422_5" x1="348.995" y1="154.116" x2="396.257" y2="225.467" gradientUnits="userSpaceOnUse">
<stop stop-color="#F4A984"/>
<stop offset="1" stop-color="#EE4D47"/>
</linearGradient>
<linearGradient id="paint16_linear_422_5" x1="39.6726" y1="-112.62" x2="268.334" y2="220.785" gradientUnits="userSpaceOnUse">
<stop stop-color="#F4A984"/>
<stop offset="1" stop-color="#EE4D47"/>
</linearGradient>
</defs>
</svg>
