<svg width="36" height="36" viewBox="0 0 36 36" fill="none" xmlns="http://www.w3.org/2000/svg">
<circle cx="18" cy="18" r="18" fill="#ED4D47"/>
<path d="M18.0018 13.1327C15.7316 13.1327 13.9005 14.9686 13.9005 17.2446C13.9005 19.5207 15.7316 21.3566 18.0018 21.3566C20.2719 21.3566 22.1031 19.5207 22.1031 17.2446C22.1031 14.9686 20.2719 13.1327 18.0018 13.1327ZM18.0018 19.9179C16.5347 19.9179 15.3354 18.7191 15.3354 17.2446C15.3354 15.7702 16.5312 14.5713 18.0018 14.5713C19.4724 14.5713 20.6682 15.7702 20.6682 17.2446C20.6682 18.7191 19.4688 19.9179 18.0018 19.9179ZM23.2274 12.9645C23.2274 13.4977 22.7991 13.9236 22.2708 13.9236C21.739 13.9236 21.3142 13.4941 21.3142 12.9645C21.3142 12.4348 21.7426 12.0054 22.2708 12.0054C22.7991 12.0054 23.2274 12.4348 23.2274 12.9645ZM25.9438 13.9379C25.8831 12.6531 25.5904 11.5151 24.6516 10.5775C23.7165 9.63982 22.5814 9.34637 21.2999 9.28195C19.9793 9.2068 16.0207 9.2068 14.7001 9.28195C13.4222 9.34279 12.2871 9.63625 11.3484 10.5739C10.4096 11.5115 10.1205 12.6495 10.0562 13.9343C9.98126 15.2584 9.98126 19.2272 10.0562 20.5514C10.1169 21.8361 10.4096 22.9742 11.3484 23.9118C12.2871 24.8494 13.4186 25.1429 14.7001 25.2073C16.0207 25.2825 19.9793 25.2825 21.2999 25.2073C22.5814 25.1465 23.7165 24.853 24.6516 23.9118C25.5868 22.9742 25.8795 21.8361 25.9438 20.5514C26.0187 19.2272 26.0187 15.262 25.9438 13.9379ZM24.2376 21.9721C23.9592 22.6736 23.4202 23.214 22.717 23.4967C21.664 23.9154 19.1654 23.8188 18.0018 23.8188C16.8381 23.8188 14.336 23.9118 13.2866 23.4967C12.5869 23.2175 12.048 22.6771 11.766 21.9721C11.3484 20.9164 11.4447 18.4113 11.4447 17.2446C11.4447 16.078 11.3519 13.5693 11.766 12.5171C12.0444 11.8157 12.5834 11.2753 13.2866 10.9926C14.3395 10.5739 16.8381 10.6705 18.0018 10.6705C19.1654 10.6705 21.6676 10.5775 22.717 10.9926C23.4166 11.2717 23.9556 11.8121 24.2376 12.5171C24.6552 13.5729 24.5588 16.078 24.5588 17.2446C24.5588 18.4113 24.6552 20.92 24.2376 21.9721Z" fill="white"/>
</svg>
