<svg width="576" height="480" viewBox="0 0 576 480" fill="none" xmlns="http://www.w3.org/2000/svg">
<path d="M333.974 438.279C393.671 471.303 525.773 419.964 525.773 293.221C525.772 88.0854 338.81 53.0711 229.211 53.0711C32.6685 53.0711 -39.5066 275.139 193.753 293.221C401.668 309.338 206.525 367.772 333.974 438.279Z" fill="#FCDDD4"/>
<mask id="mask0_495_1" style="mask-type:alpha" maskUnits="userSpaceOnUse" x="47" y="53" width="479" height="396">
<path d="M333.916 438.279C393.612 471.303 525.715 419.964 525.714 293.221C525.713 88.0854 338.751 53.0711 229.153 53.0711C32.6099 53.0711 -39.5652 275.139 193.694 293.221C401.609 309.338 206.466 367.772 333.916 438.279Z" fill="#F6A182"/>
</mask>
<g mask="url(#mask0_495_1)">
<path opacity="0.7" d="M59 310.876C80.1564 283.391 136.192 229.795 191.085 235.292C259.7 242.164 129.331 371 191.085 371C252.838 371 282 212.961 326.6 212.961C371.2 212.961 276.854 329.772 326.6 336.644C376.346 343.515 417.515 171.733 472.408 170.015C527.3 168.298 415.8 310.876 505 310.876" stroke="url(#paint0_linear_495_1)" stroke-width="2"/>
<path d="M341.394 232.009C341.394 232.009 337.565 341.901 341.029 466.787C341.029 466.787 351.423 476.66 371.117 470.078C371.117 470.078 370.935 331.113 376.223 275.892C376.223 275.892 401.023 380.848 432.387 471.723C432.387 471.723 453.358 475.746 460.834 463.861C460.834 463.861 418.529 316.668 412.329 232.009H341.394Z" fill="url(#paint1_linear_495_1)"/>
<path d="M341.394 232.009H412.328C412.875 238.408 413.422 245.174 414.334 252.122C372.029 252.305 349.599 241.517 341.211 236.58C341.211 233.471 341.394 232.009 341.394 232.009Z" fill="#402B2B" fill-opacity="0.45" style="mix-blend-mode:multiply"/>
<path d="M170.246 278.275C170.246 298.775 182.025 315.338 196.512 315.338H222.778C237.265 315.338 248.909 298.64 248.909 278.275C248.909 257.775 237.13 241.212 222.643 241.212C222.372 241.212 222.237 241.212 221.966 241.212H196.512C181.89 241.212 170.246 257.775 170.246 278.275Z" fill="#F48767"/>
<path d="M-37.3076 275.153L68.4336 274.882L56.2483 267.686L-23.7684 267.822L-37.3076 275.153Z" fill="#402B2B"/>
<path d="M-137.092 214.739L-136.956 282.756L-51.1178 282.62L-23.7686 267.822L56.2481 267.687L80.8895 282.349L255.545 281.942C258.389 281.942 260.69 279.634 260.69 276.783L260.555 213.925L-137.092 214.739Z" fill="#F36F49"/>
<path d="M50.0214 230.216L187.038 229.944L186.767 105.451C186.767 100.427 182.706 96.3545 177.561 96.3545L49.6152 96.626L50.0214 230.216Z" fill="#F48767"/>
<path d="M-163.628 230.758L49.8856 230.351L49.6149 96.7611L-154.827 97.1684C-159.837 97.1684 -163.898 101.241 -163.898 106.4L-163.628 230.758Z" fill="#F06A5B"/>
<path d="M152.917 278.275C152.917 298.775 141.274 315.338 126.787 315.338H100.656V302.848C91.0432 302.848 83.1904 291.852 83.1904 278.275C83.1904 264.699 90.9078 253.702 100.521 253.702V241.212H126.651C141.138 241.348 152.782 257.911 152.917 278.275Z" fill="#F48767"/>
<path d="M78.9951 278.547C78.9951 295.382 88.608 308.958 100.522 308.822C112.437 308.822 121.914 295.246 121.914 278.412C121.914 261.577 112.302 248.001 100.387 248.137C88.608 248.137 78.9951 261.713 78.9951 278.547Z" fill="#F48767"/>
<path d="M100.521 298.504C108.374 298.504 114.602 289.543 114.602 278.411C114.602 267.278 108.238 258.454 100.385 258.454C92.5327 258.454 86.3047 267.414 86.3047 278.547C86.3047 289.679 92.6681 298.504 100.521 298.504ZM100.521 266.6C105.124 266.6 108.915 271.894 108.915 278.411C108.915 284.927 105.124 290.358 100.521 290.358C95.9176 290.358 92.1265 285.063 92.1265 278.547C92.1265 271.894 95.7822 266.6 100.521 266.6Z" fill="#F7A58D"/>
<path d="M100.521 315.474C115.008 315.474 126.652 298.775 126.652 278.411C126.652 258.047 114.873 241.348 100.386 241.348C85.8986 241.348 74.2549 258.047 74.2549 278.411C74.2549 298.775 86.1694 315.61 100.521 315.474ZM100.386 248.136C112.3 248.136 121.913 261.712 121.913 278.411C121.913 295.246 112.436 308.822 100.521 308.822C88.6065 308.822 78.9936 295.246 78.9936 278.547C78.9936 261.712 88.6065 248.136 100.386 248.136Z" fill="#F7A58D"/>
<path d="M96.8662 278.411C96.8662 275.56 98.4909 273.388 100.386 273.388C102.282 273.388 103.907 275.696 104.042 278.411C104.042 281.262 102.417 283.435 100.522 283.435C98.4909 283.57 96.8662 281.262 96.8662 278.411Z" fill="#5B2929"/>
<path d="M277.749 176.853C277.749 177.396 278.155 177.803 278.561 177.939C279.644 178.211 283.706 178.211 284.924 177.803C285.466 177.667 286.007 177.26 286.007 176.581C286.414 165.72 286.414 155.131 286.007 145.085C286.007 144.406 285.466 143.998 284.924 143.863C283.57 143.455 278.832 143.184 277.342 143.727C276.801 143.863 276.395 144.406 276.395 144.949C276.124 155.267 276.53 165.856 277.749 176.853Z" fill="#F69276"/>
<path d="M271.116 186.5C271.251 186.5 271.386 186.5 271.657 186.365L280.864 181.749C283.03 180.663 284.384 178.491 284.384 176.047L284.249 141.97C284.249 140.613 283.166 139.527 281.812 139.527H256.493C255.816 139.527 255.41 140.07 255.41 140.613C255.41 141.292 255.952 141.699 256.493 141.699H281.812C281.947 141.699 281.947 141.835 281.947 141.835L282.082 175.911C282.082 177.54 281.135 178.898 279.781 179.577L270.574 184.193C270.032 184.464 269.762 185.143 270.032 185.686C270.303 186.365 270.709 186.5 271.116 186.5Z" fill="#F69276"/>
<path d="M68.4337 229.944C68.4337 229.944 71.9539 229.944 77.3696 229.944H98.897C115.009 229.944 118.8 237.954 128.683 257.64L159.959 257.504C159.959 257.504 159.959 255.196 159.959 251.259L279.375 250.987C279.916 241.077 280.999 220.984 280.999 201.977C280.999 201.298 280.999 200.755 280.999 200.076C280.999 194.646 280.052 188.672 278.427 182.699C272.063 159.348 255.952 134.503 249.318 125.407C247.151 122.421 245.256 119.841 243.631 117.533C239.028 111.424 235.914 108.301 230.092 108.301L85.3578 108.709C82.3791 108.709 79.6713 110.745 78.859 113.596C66.4029 159.484 68.2984 194.374 68.4337 229.944ZM190.422 124.864C190.287 124.185 190.828 123.642 191.505 123.642L235.508 123.507C238.08 123.507 240.653 124.864 242.277 127.172C259.472 150.659 266.377 172.109 268.949 184.464L271.657 197.497C272.063 199.398 270.845 200.891 268.949 200.891H258.254C256.493 200.891 254.598 200.076 253.244 198.719L231.31 177.676C228.873 175.368 225.624 174.01 222.51 174.01H196.244L190.422 124.864Z" fill="#F36F49"/>
<path d="M167.675 183.107C168.623 187.451 169.706 191.931 170.653 196.683C171.33 199.941 174.174 202.249 177.423 202.385C220.207 203.878 255.68 204.014 280.998 202.113C280.998 201.435 280.998 200.892 280.998 200.213C280.998 194.782 280.05 188.809 278.426 182.835L167.675 183.107Z" fill="#F6977C"/>
<path d="M88.6058 123.778L132.608 123.643C135.181 123.643 137.482 125 138.701 127.308C151.022 150.795 153.594 172.246 153.594 184.6V197.633C153.594 199.534 152.105 201.027 150.209 201.027H139.513C137.753 201.027 135.993 200.213 134.91 198.855L117.309 177.812C115.278 175.504 112.435 174.01 109.321 174.146H83.0547L87.2519 125C87.2519 124.322 87.7934 123.778 88.6058 123.778Z" fill="#F36F49"/>
<path d="M68.4337 229.944C68.4337 229.944 71.9539 229.944 77.3696 229.944H98.897C115.009 229.944 118.8 237.954 128.683 257.64L159.959 257.504C159.959 257.504 159.959 255.196 159.959 251.259L279.375 250.987C279.916 241.077 280.999 220.984 280.999 201.977C255.681 203.878 220.073 203.878 177.424 202.249C174.175 202.113 171.332 199.805 170.655 196.547C169.707 191.795 168.624 187.179 167.676 182.97C161.854 158.126 155.491 140.341 147.097 121.063C146.42 119.57 147.503 117.805 149.127 117.805L243.631 117.533C239.028 111.424 235.914 108.301 230.092 108.301L85.3578 108.709C82.3791 108.709 79.6713 110.745 78.859 113.596C66.4029 159.484 68.2984 194.374 68.4337 229.944ZM82.9207 174.146L87.1178 125C87.1178 124.321 87.7948 123.778 88.4718 123.778L132.474 123.642C135.047 123.642 137.348 125 138.567 127.308C150.888 150.795 153.46 172.245 153.46 184.6V197.633C153.46 199.533 151.971 201.027 150.075 201.027H139.379C137.619 201.027 135.859 200.212 134.776 198.855L117.175 177.811C115.144 175.504 112.301 174.01 109.187 174.146H82.9207Z" fill="#F7A58D"/>
<path d="M73.7132 226.415C73.7132 228.451 75.338 229.944 77.3689 229.944H98.8962C115.008 229.944 118.799 237.954 128.682 257.64L159.958 257.504C159.958 257.504 159.958 255.196 159.958 251.259L159.823 196.275C159.823 168.987 154.949 151.745 142.086 124.457C140.191 120.384 135.994 117.805 131.526 117.805L84.9508 117.941C83.8677 117.941 83.0553 118.62 82.7845 119.57C73.5779 154.596 73.5779 211.617 73.7132 226.415ZM82.9199 174.146L87.1171 125C87.1171 124.322 87.794 123.779 88.471 123.779L132.473 123.643C135.046 123.643 137.348 125 138.566 127.308C150.887 150.795 153.459 172.246 153.459 184.6V197.633C153.459 199.534 151.97 201.027 150.074 201.027H139.378C137.618 201.027 135.858 200.213 134.775 198.855L117.174 177.812C115.143 175.504 112.3 174.01 109.186 174.146H82.9199Z" fill="#F58A6B"/>
<path d="M88.8766 125.408L132.608 125.272C134.504 125.272 136.264 126.358 137.212 127.987C149.938 152.289 151.969 173.875 151.969 184.464V197.497C151.969 198.448 151.157 199.262 150.209 199.262H139.513C138.159 199.262 136.941 198.719 136.128 197.769L118.527 176.726C116.226 174.01 112.841 172.381 109.185 172.381H84.8148L88.8766 125.408ZM88.6058 123.778C87.9288 123.778 87.2519 124.322 87.2519 125L83.0547 174.146H109.321C112.435 174.146 115.278 175.504 117.309 177.812L134.91 198.855C135.993 200.213 137.753 201.027 139.513 201.027H150.209C152.105 201.027 153.594 199.534 153.594 197.633V184.6C153.594 172.246 151.022 150.795 138.701 127.308C137.482 125 135.181 123.643 132.608 123.643L88.6058 123.778Z" fill="#F7A58D"/>
<path d="M159.824 225.328V251.259L207.076 251.123C206.534 244.335 205.316 237.818 203.285 231.709C202.473 229.265 200.442 227.5 197.869 227.093C187.444 225.871 174.176 225.328 159.824 225.328ZM255.411 251.123H278.834C279.24 245.421 279.646 236.189 280.052 225.735C274.366 226.007 269.086 226.55 264.347 227.229C261.774 227.636 259.744 229.401 258.931 231.845C257.036 237.818 255.953 244.335 255.411 251.123Z" fill="#F6977C"/>
<path d="M159.959 277.325L269.491 277.054C276.938 277.054 283.03 270.945 283.03 263.478V261.17C283.03 258.997 281.27 257.368 279.239 257.368L160.094 257.64L159.959 277.325Z" fill="#F6977C"/>
<path d="M139.785 277.326H159.959V257.64H128.954L132.339 271.352C133.151 274.882 136.265 277.326 139.785 277.326Z" fill="#F7A58D"/>
<path d="M91.5853 205.507C96.1887 205.643 105.125 206.594 105.125 209.852C105.125 213.11 97.2718 214.196 90.9084 214.196C84.5449 214.196 83.8679 210.666 83.3264 209.173C82.9202 207.68 82.514 205.372 91.5853 205.507Z" fill="#F6977C"/>
<path d="M91.9915 209.029C89.8252 209.029 87.5236 208.352 86.4404 207.268C87.2528 206.862 88.4713 206.456 90.3668 206.456C93.887 206.456 99.5735 206.862 102.552 208.216C102.146 208.487 101.063 209.029 99.3027 209.029C97.1364 209.029 94.2932 209.029 91.9915 209.029Z" fill="#F47B58"/>
<path d="M101.063 211.606C101.876 211.606 102.282 211.741 102.417 211.877C99.9802 212.96 95.5122 213.367 93.3459 213.367C90.2319 213.367 88.0656 213.367 87.3887 212.689C87.9302 212.283 89.1488 211.606 90.3673 211.606C91.992 211.741 99.9802 211.606 101.063 211.606Z" fill="#F47B58"/>
<path d="M159.959 251.395C159.959 255.332 159.959 257.64 159.959 257.64L278.969 257.368C278.969 257.368 279.104 255.06 279.375 251.123L159.959 251.395Z" fill="#F58A6B"/>
<g opacity="0.2">
<path d="M211.273 223.97V249.901L251.214 249.765V223.835C251.214 220.712 248.371 218.268 244.851 218.268H217.501C214.117 218.404 211.273 220.984 211.273 223.97Z" fill="#F16036"/>
</g>
<path d="M264.617 248.951H273.012C275.178 248.951 277.073 247.186 277.073 244.878V240.669C277.073 238.497 275.313 236.597 273.012 236.597H264.617C262.451 236.597 260.556 238.361 260.556 240.669V244.878C260.556 247.186 262.451 248.951 264.617 248.951Z" fill="white"/>
<path d="M185.14 249.223H193.534C195.7 249.223 197.596 247.458 197.596 245.15V240.941C197.596 238.769 195.836 236.868 193.534 236.868H185.14C182.974 236.868 181.078 238.633 181.078 240.941V245.15C181.078 247.322 182.838 249.223 185.14 249.223Z" fill="white"/>
<path d="M130.983 177.125C130.983 177.668 131.39 178.076 131.796 178.211C137.076 178.754 142.627 178.754 148.314 178.076C148.991 177.94 149.397 177.533 149.397 176.854C149.803 165.993 149.803 155.403 149.397 145.357C149.397 144.678 148.855 144.271 148.314 144.135C142.492 143.456 136.67 143.456 130.577 144.135C130.036 144.271 129.629 144.814 129.629 145.357C129.223 155.539 129.765 166.129 130.983 177.125Z" fill="#F7A58D"/>
<path d="M151.968 186.773C152.374 186.773 152.78 186.501 152.916 186.094C153.186 185.551 152.916 184.872 152.374 184.6L143.167 180.12C141.814 179.441 140.866 177.948 140.866 176.455L140.73 142.378C140.73 142.242 140.866 142.243 140.866 142.243H146.552C147.229 142.243 147.635 141.699 147.635 141.156C147.635 140.478 147.094 140.07 146.552 140.07H140.866C139.512 140.07 138.429 141.156 138.429 142.514L138.564 176.59C138.564 179.034 139.918 181.206 142.084 182.292L151.291 186.773C151.697 186.773 151.833 186.773 151.968 186.773Z" fill="#F69276"/>
<path d="M214.065 278.933L252.381 278.849L252.356 267.31L214.04 267.393L214.065 278.933Z" fill="#F8B4A0"/>
<path opacity="0.6" d="M146.836 121.474C155.23 140.752 161.458 158.537 167.415 183.381L278.166 183.11C271.803 159.759 255.691 134.914 249.057 125.818C246.891 122.831 244.995 120.252 243.37 117.944L148.867 118.215C147.242 118.351 146.159 119.98 146.836 121.474Z" fill="url(#paint2_linear_495_1)"/>
<path d="M566.911 385.263H458.482V469.182H566.911V385.263Z" fill="#8C5E5E"/>
<path d="M495.328 385.263H485.151V396.875H495.328V385.263Z" fill="#A3774A"/>
<path d="M495.806 385.263H387.377V469.182H495.806V385.263Z" fill="#F7A58D"/>
<path d="M495.98 385.263H456.504V469.182H495.98V385.263Z" fill="#F58A6B"/>
<path d="M482.471 385.263H472.295V396.875H482.471V385.263Z" fill="white"/>
<path d="M424.22 385.263H414.044V396.875H424.22V385.263Z" fill="white"/>
<path d="M523.458 303.802H415.029V387.721H523.458V303.802Z" fill="#F7A58D"/>
<path d="M523.633 303.802H484.156V387.721H523.633V303.802Z" fill="#F58A6B"/>
<path d="M510.124 303.802H499.947V315.413H510.124V303.802Z" fill="white"/>
<path d="M451.872 303.802H441.696V315.413H451.872V303.802Z" fill="white"/>
</g>
<path d="M348.506 47.8793H366.011L368.382 37.2738C368.382 37.2738 361.453 41.2966 359.811 38.5538C358.17 35.811 358.535 36.9081 356.894 37.2738C355.253 37.6396 355.253 35.4453 353.247 36.7253C351.058 38.1881 347.776 45.1365 348.506 47.8793Z" fill="#6B1912"/>
<path d="M310.012 182.23L327.338 156.039L352.32 163.292C351.353 171.028 335.262 194.184 327.338 204.794L310.012 182.23Z" fill="url(#paint3_linear_495_1)"/>
<path d="M312.455 176.07C320.943 137.306 337.658 110.746 337.658 110.746C347.074 112.821 350.545 145.8 350.545 145.8C348.555 157.316 342.511 187.245 337.704 198.288L312.455 176.07Z" fill="url(#paint4_linear_495_1)"/>
<path d="M337.564 110.318C337.564 110.318 338.476 131.346 341.211 232.462C341.211 232.462 366.011 245.079 415.428 236.302C415.428 236.302 415.61 205.949 422.357 179.07C422.357 179.07 434.939 128.42 428.557 113.609C428.557 113.609 388.258 88.5586 337.564 110.318Z" fill="url(#paint5_linear_495_1)"/>
<path d="M375.858 90.2776L375.493 103.37C375.493 103.37 378.593 107.942 386.069 108.49C393.545 108.856 397.192 104.65 397.192 104.65L397.922 85.1577C388.622 89.1805 379.505 90.8262 375.858 90.2776Z" fill="url(#paint6_linear_495_1)"/>
<path d="M376.587 84.9026L375.858 99.3478C379.505 99.8964 388.623 98.2507 397.74 94.228L398.287 84.9026H376.587Z" fill="url(#paint7_linear_495_1)" style="mix-blend-mode:multiply"/>
<path d="M426.004 142.135C426.004 142.135 415.246 166.454 411.416 177.425C407.587 188.213 407.587 231.182 387.528 239.411C387.528 239.411 408.863 238.131 415.61 236.302C415.61 236.302 415.975 203.938 422.54 179.07C422.54 179.07 427.098 152.923 428.922 141.038L426.004 142.135Z" fill="#EE4D47" fill-opacity="0.29" style="mix-blend-mode:multiply"/>
<path d="M411.78 53.0872C411.416 53.27 411.051 59.1212 411.051 59.1212L409.592 71.3721L402.845 76.6747L399.016 78.3203C399.016 78.3203 393.363 75.9433 394.092 73.7491C394.822 71.7378 398.469 42.8477 399.198 42.8477C399.927 42.8477 405.763 47.0532 405.763 47.0532L411.78 53.0872Z" fill="#402B2B"/>
<path d="M358.351 42.1166C356.71 42.1166 359.263 62.2295 359.263 62.2295L362.181 54.1843L364.187 44.4935L358.351 42.1166Z" fill="#402B2B"/>
<path d="M361.088 46.139L357.988 71.9206C357.988 71.9206 356.894 93.6796 374.764 94.9595C392.635 96.0566 404.852 78.3203 404.852 78.3203C404.852 78.3203 407.041 80.8802 409.411 76.4918C411.599 72.1035 410.14 66.2523 407.041 65.7038C403.758 65.3381 402.299 67.1666 401.935 69.9093C401.57 72.652 401.205 74.6634 401.205 74.6634L398.47 74.2977L400.476 53.0873C400.476 53.0873 396.282 44.8591 391.541 43.2135C386.8 41.5678 382.606 48.1503 382.606 48.1503C382.606 48.1503 378.229 49.0646 374.035 48.1503C369.841 47.2361 367.106 46.139 367.106 46.139C367.106 46.139 364.553 46.8704 361.088 46.139Z" fill="url(#paint8_linear_495_1)"/>
<path d="M374.035 85.086C380.052 85.4518 380.964 78.5029 380.964 78.5029C380.964 78.5029 367.105 76.8572 366.741 76.6743C366.741 76.6743 365.646 84.5374 374.035 85.086Z" fill="#893D43"/>
<path d="M380.417 80.6878C380.964 79.4108 381.146 78.4986 381.146 78.4986C381.146 78.4986 367.288 76.8567 366.923 76.6743C366.923 76.6743 366.741 77.5864 366.923 79.0459L380.417 80.6878Z" fill="#FFFEFF"/>
<path d="M379.868 39.5562V20.9058C390.992 21.4543 402.48 23.6484 408.133 30.5966C414.88 38.8248 411.05 57.8409 411.05 57.8409C411.05 57.8409 402.845 56.9267 401.386 54.184C399.927 51.4413 386.068 47.6015 375.492 48.15C364.916 48.6985 359.81 47.6015 354.522 43.0303C353.428 42.1161 352.516 40.8361 351.786 39.3734H379.868V39.5562Z" fill="#402B2B"/>
<path d="M412.328 50.8928C412.328 50.8928 404.487 48.3329 391.358 47.2358C369.294 37.9105 359.811 39.5562 359.811 39.5562C359.811 39.5562 359.994 32.425 361.999 27.4881C364.005 22.5511 377.499 15.6029 388.805 16.7C400.111 17.7971 411.781 26.2081 413.605 34.2535C415.064 40.4704 412.328 50.8928 412.328 50.8928Z" fill="url(#paint9_linear_495_1)"/>
<path d="M399.018 48.1499C396.647 36.8136 379.688 31.1454 367.653 31.3283C355.8 31.5111 347.412 41.3847 346.136 48.1499C345.589 50.8926 347.777 51.2582 348.506 48.8813C349.053 47.2357 350.147 39.3734 361.089 40.2876C372.03 41.2018 371.483 51.0754 376.953 51.9896C382.059 52.9038 387.894 49.247 399.018 48.1499Z" fill="url(#paint10_linear_495_1)"/>
<path d="M362.364 50.7068V49.4298C362.911 49.4298 367.105 48.8825 372.211 49.9771L372.029 51.9838C367.835 50.7068 362.364 50.7068 362.364 50.7068Z" fill="#402B2B"/>
<path d="M393.181 55.2676C389.898 53.4433 383.699 52.5311 383.699 52.3487L384.428 50.5243C384.61 50.5243 390.263 51.6189 393.91 53.9906L393.181 55.2676Z" fill="#402B2B"/>
<path d="M374.947 61.4993C374.947 61.4993 374.4 65.3388 372.941 66.4358C371.483 67.5328 368.93 68.447 368.565 69.3611C368.2 70.0925 368.93 71.5552 370.571 72.1037C372.212 72.6522 372.394 73.2007 372.394 73.2007C372.394 73.2007 369.112 73.5664 367.471 71.5552C365.83 69.544 367.653 67.8985 369.294 66.9843C370.936 66.0701 371.665 65.7045 372.394 65.156C373.306 64.6075 374.947 61.4993 374.947 61.4993Z" fill="#D87C60"/>
<path d="M382.788 63.5085C382.788 65.3365 384.064 66.9817 385.705 66.9817C387.347 66.9817 388.623 65.5193 388.623 63.5085C388.623 61.6806 387.347 60.0354 385.705 60.0354C384.064 60.0354 382.788 61.4978 382.788 63.5085Z" fill="#402B2B"/>
<path d="M362.729 61.1324C362.729 62.961 364.006 64.6067 365.647 64.6067C367.288 64.6067 368.564 63.1439 368.564 61.1324C368.564 59.3039 367.288 57.6582 365.647 57.6582C364.006 57.8411 362.729 59.3039 362.729 61.1324Z" fill="#402B2B"/>
<path d="M274.316 138.174C273.557 136.758 274.09 134.996 275.506 134.237C276.922 133.478 278.685 134.011 279.444 135.427L289.061 153.372L283.933 156.12L274.316 138.174Z" fill="white"/>
<path d="M276.172 141.554L281.254 138.83L292.245 159.34L287.163 162.063L276.172 141.554Z" fill="#822626"/>
<path d="M350.709 193.706C348.453 189.193 348.963 185.648 349.5 184.439C351.784 185.782 356.512 189.193 357.156 192.095C357.801 194.996 356.35 198.676 355.544 200.153C354.873 199.885 352.966 198.219 350.709 193.706Z" fill="url(#paint11_linear_495_1)"/>
<path d="M253.909 162.229C252.965 159.026 255.366 155.816 258.705 155.816H320.003C322.22 155.816 324.172 157.276 324.799 159.403L347.626 236.884C348.57 240.087 346.169 243.297 342.83 243.297H281.532C279.315 243.297 277.363 241.837 276.736 239.71L253.909 162.229Z" fill="white"/>
<path d="M252.66 158.278C251.821 155.106 254.213 152 257.494 152H318.873C321.142 152 323.127 153.528 323.707 155.722L346.836 243.203C347.675 246.375 345.283 249.481 342.002 249.481H280.623C278.354 249.481 276.369 247.953 275.789 245.759L252.66 158.278Z" fill="url(#paint12_linear_495_1)"/>
<path fill-rule="evenodd" clip-rule="evenodd" d="M416.341 195.344C429.653 175.962 431.477 117.267 431.477 117.267C419.228 118.864 413.378 131.016 409.62 138.823C407.783 142.639 406.446 145.416 405.106 145.416L399.465 181.36L343.054 191.456C343.007 191.522 342.961 191.586 342.915 191.65C340.138 191.723 330.493 192.268 324.194 196.288C324.194 196.288 320.931 198.74 322.807 200.458C323.704 201.439 323.418 202.502 323.132 203.565C322.847 204.628 322.561 205.691 323.458 206.672C324.214 207.501 324.333 208.357 324.449 209.201C324.608 210.356 324.764 211.486 326.556 212.48C326.556 212.48 326.229 215.096 328.594 216.16C328.701 216.208 328.814 216.26 328.933 216.313C331.431 217.441 336.303 219.64 337.238 218.782C337.589 218.459 338.465 217.821 339.448 217.106C341.205 215.827 343.303 214.299 343.356 213.88C343.438 213.225 343.275 212.081 341.154 211.916C341.154 211.916 343.193 211.508 345.314 210.038C347.517 208.731 349.882 205.298 349.882 205.298L352.028 200.385C404.294 204.851 416.341 195.344 416.341 195.344Z" fill="url(#paint13_linear_495_1)"/>
<path d="M401.023 144.146L395.918 171.025L394.629 177.79L349.5 187.821C351.649 189.706 355.867 195.414 355.544 203.168C369.513 205.187 400.915 207.288 414.776 199.533C417.304 197.558 422.979 190.443 425.458 177.79C441.688 121.838 428.558 113.61 428.558 113.61C410.323 115.987 401.023 144.146 401.023 144.146Z" fill="url(#paint14_linear_495_1)"/>
<path d="M242.573 324.538C241.226 318.322 239.005 312.443 236.043 307.038C235.639 306.295 235.168 305.484 234.697 304.74C231.264 298.997 227.023 293.862 222.109 289.402C221.504 288.794 220.83 288.253 220.157 287.713C214.907 283.321 208.916 279.739 202.454 277.172C201.646 276.834 200.839 276.564 200.031 276.293C193.569 273.996 186.568 272.712 179.366 272.577C178.962 272.577 178.491 272.577 178.087 272.577C177.683 272.577 177.212 272.577 176.808 272.577C169.538 272.712 162.605 273.996 156.143 276.293C155.335 276.564 154.527 276.901 153.719 277.172C147.257 279.739 141.267 283.321 136.016 287.713C135.343 288.253 134.67 288.861 134.064 289.402C129.15 293.862 124.842 298.997 121.477 304.74C121.005 305.484 120.601 306.295 120.13 307.038C117.169 312.443 114.947 318.322 113.601 324.538C113.399 325.417 113.264 326.295 113.062 327.174C112.389 330.958 112.053 334.809 112.053 338.728H244.053C244.053 334.809 243.717 330.89 243.044 327.174C242.909 326.295 242.775 325.417 242.573 324.538Z" fill="#FCDDD4"/>
<path d="M324.159 358.183C322.477 350.46 319.7 343.156 315.998 336.44C315.493 335.517 314.904 334.509 314.315 333.586C310.024 326.45 304.723 320.07 298.58 314.529C297.823 313.773 296.982 313.102 296.14 312.43C289.577 306.973 282.089 302.524 274.011 299.334C273.002 298.914 271.992 298.578 270.982 298.242C262.905 295.388 254.154 293.793 245.151 293.625C244.646 293.625 244.057 293.625 243.552 293.625C243.047 293.625 242.458 293.625 241.954 293.625C232.866 293.793 224.2 295.388 216.122 298.242C215.112 298.578 214.103 298.998 213.093 299.334C205.016 302.524 197.527 306.973 190.964 312.43C190.123 313.102 189.281 313.857 188.524 314.529C182.382 320.07 176.997 326.45 172.79 333.586C172.201 334.509 171.696 335.517 171.107 336.44C167.404 343.156 164.628 350.46 162.945 358.183C162.693 359.275 162.524 360.366 162.272 361.458C161.43 366.159 161.01 370.944 161.01 375.813H326.01C326.01 370.944 325.59 366.075 324.748 361.458C324.58 360.366 324.412 359.275 324.159 358.183Z" fill="white"/>
<path d="M344.431 341.765C333.462 341.765 329.348 332.14 329.348 318.735C329.348 305.33 325.577 294.331 310.838 293.644C291.642 292.956 293.356 311.517 293.356 334.203C293.356 363.075 283.072 344.514 268.675 360.669C256.335 374.418 272.103 398.822 276.902 406.041H338.946C341.003 402.26 346.144 392.979 351.972 381.636C364.998 357.576 355.4 341.765 344.431 341.765Z" fill="#F37753"/>
<path opacity="0.2" fill-rule="evenodd" clip-rule="evenodd" d="M314.951 346.233H311.866V389.34L298.907 372.013L296.438 373.869L311.866 394.496V406.041H314.951V373.471L328.022 357.214L325.621 355.273L314.951 368.543V346.233Z" fill="white"/>
<rect x="264.058" y="402" width="90" height="50" fill="#FCDDD4"/>
<defs>
<linearGradient id="paint0_linear_495_1" x1="282" y1="217.584" x2="282" y2="415.302" gradientUnits="userSpaceOnUse">
<stop stop-color="#F37753"/>
<stop offset="1" stop-color="white" stop-opacity="0"/>
</linearGradient>
<linearGradient id="paint1_linear_495_1" x1="400.206" y1="164.023" x2="400.206" y2="472.379" gradientUnits="userSpaceOnUse">
<stop stop-color="#822626"/>
<stop offset="0.943497" stop-color="#402B2B"/>
</linearGradient>
<linearGradient id="paint2_linear_495_1" x1="198.5" y1="97.1755" x2="251.707" y2="224.38" gradientUnits="userSpaceOnUse">
<stop stop-color="#F7A58D"/>
<stop offset="0.926161" stop-color="white"/>
</linearGradient>
<linearGradient id="paint3_linear_495_1" x1="329.852" y1="156.039" x2="329.852" y2="204.011" gradientUnits="userSpaceOnUse">
<stop stop-color="#FFB3B6"/>
<stop offset="1" stop-color="#FFC8C1"/>
</linearGradient>
<linearGradient id="paint4_linear_495_1" x1="319.323" y1="205.141" x2="346.839" y2="119.617" gradientUnits="userSpaceOnUse">
<stop stop-color="#F4A984"/>
<stop offset="1" stop-color="#EE4D47"/>
</linearGradient>
<linearGradient id="paint5_linear_495_1" x1="383.964" y1="48.8918" x2="383.964" y2="234.669" gradientUnits="userSpaceOnUse">
<stop stop-color="#F4A984"/>
<stop offset="1" stop-color="#EE4D47"/>
</linearGradient>
<linearGradient id="paint6_linear_495_1" x1="394.18" y1="102.427" x2="375.713" y2="110.373" gradientUnits="userSpaceOnUse">
<stop stop-color="#FFB3B6"/>
<stop offset="1" stop-color="#FFC8C1"/>
</linearGradient>
<linearGradient id="paint7_linear_495_1" x1="394.545" y1="93.2531" x2="375.975" y2="101.1" gradientUnits="userSpaceOnUse">
<stop stop-color="#FFB3B6" stop-opacity="0.31"/>
<stop offset="1" stop-color="#FFC8C1"/>
</linearGradient>
<linearGradient id="paint8_linear_495_1" x1="355.612" y1="88.6991" x2="359.577" y2="53.3498" gradientUnits="userSpaceOnUse">
<stop stop-color="#FFB3B6"/>
<stop offset="1" stop-color="#FFC8C1"/>
</linearGradient>
<linearGradient id="paint9_linear_495_1" x1="386.922" y1="-1.83914" x2="386.922" y2="51.3258" gradientUnits="userSpaceOnUse">
<stop stop-color="#F4A984"/>
<stop offset="1" stop-color="#EE4D47"/>
</linearGradient>
<linearGradient id="paint10_linear_495_1" x1="388.309" y1="26.0598" x2="388.309" y2="81.3285" gradientUnits="userSpaceOnUse">
<stop stop-color="#F4A984"/>
<stop offset="1" stop-color="#EE4D47"/>
</linearGradient>
<linearGradient id="paint11_linear_495_1" x1="356.753" y1="185.245" x2="337.977" y2="192.679" gradientUnits="userSpaceOnUse">
<stop stop-color="#F4A984"/>
<stop offset="1" stop-color="#EE4D47"/>
</linearGradient>
<linearGradient id="paint12_linear_495_1" x1="348" y1="201" x2="170" y2="235" gradientUnits="userSpaceOnUse">
<stop stop-color="#F58A6B"/>
<stop offset="1" stop-color="#F7A58D"/>
</linearGradient>
<linearGradient id="paint13_linear_495_1" x1="413.518" y1="168.183" x2="318.942" y2="199.637" gradientUnits="userSpaceOnUse">
<stop stop-color="#FFB3B6"/>
<stop offset="1" stop-color="#FFC8C1"/>
</linearGradient>
<linearGradient id="paint14_linear_495_1" x1="380.929" y1="154.705" x2="436.083" y2="191.832" gradientUnits="userSpaceOnUse">
<stop stop-color="#F4A984"/>
<stop offset="1" stop-color="#EE4D47"/>
</linearGradient>
</defs>
</svg>
