<svg width="721" height="681" viewBox="0 0 721 681" fill="none" xmlns="http://www.w3.org/2000/svg">
<path d="M334.001 141.963C250.129 84.5614 116.675 149.617 126.001 286.477C141.903 519.829 304.137 546.935 446 519.829C631.636 484.36 674.465 271.506 503.055 286.477C365.494 298.491 438.841 213.716 334.001 141.963Z" fill="#FCDDD4"/>
<mask id="mask0_413_1263" style="mask-type:alpha" maskUnits="userSpaceOnUse" x="125" y="121" width="487" height="408">
<path d="M334 141.963C250.128 84.5614 116.674 149.617 126 286.477C141.902 519.829 304.136 546.935 445.999 519.829C631.635 484.36 674.464 271.506 503.054 286.477C365.493 298.491 438.84 213.716 334 141.963Z" fill="#FCDDD4"/>
</mask>
<g mask="url(#mask0_413_1263)">
<path opacity="0.7" d="M101.072 152.138C128.703 140.007 193.88 122.525 233.54 149.65C283.116 183.556 129.751 227.389 176.948 253.186C224.145 278.984 312.337 170.591 346.423 189.223C380.51 207.854 259.691 257.562 294.845 283.585C329.999 309.609 433.1 195.748 475.769 217.368C518.437 238.989 373.764 301.189 441.936 338.452" stroke="url(#paint0_linear_413_1263)" stroke-width="2"/>
<path d="M271.001 541.052C271.001 513.437 293.387 491.052 321.001 491.052L588.001 491.052L588.001 601.052L271.001 601.052L271.001 541.052Z" fill="#F58A6B"/>
</g>
<path fill-rule="evenodd" clip-rule="evenodd" d="M158.416 300.854C160.057 302.262 161.352 303.758 162.38 305.19L164.861 301.7C163.601 300.326 162.376 299.074 160.919 297.88L158.416 300.854Z" fill="#3E1A0B"/>
<path fill-rule="evenodd" clip-rule="evenodd" d="M166.702 307.195C165.166 304.436 161.881 303.429 159.327 304.992L155.945 307.157C153.391 308.719 152.665 312.312 154.083 315.101C155.619 317.86 158.904 318.867 161.458 317.304L164.84 315.14C167.394 313.577 168.272 310.077 166.702 307.195Z" fill="#F69E9F"/>
<path fill-rule="evenodd" clip-rule="evenodd" d="M302.872 195.795L242.731 204.494L238.956 184.254C238.589 182.526 236.986 181.241 235.185 181.436L187.511 188.284C185.86 188.572 184.704 190.164 184.991 192.042L188.766 212.282L132.076 220.499C130.656 220.728 129.581 222.17 129.88 223.655L175.659 470.838C175.957 472.323 177.41 473.516 178.83 473.287L349.661 448.704C351.08 448.476 352.155 447.034 351.857 445.549L305.962 198.395C305.86 196.73 304.327 195.687 302.872 195.795Z" fill="url(#paint1_linear_413_1263)"/>
<path fill-rule="evenodd" clip-rule="evenodd" d="M294.897 226.373L144.531 248.086C143.224 248.286 142.344 249.549 142.608 250.914L182.326 465.033C182.59 466.398 183.86 467.379 185.167 467.179L335.534 445.466C336.84 445.266 337.72 444.003 337.456 442.638L297.739 228.519C297.474 227.154 296.204 226.173 294.897 226.373Z" fill="#F36F49"/>
<path fill-rule="evenodd" clip-rule="evenodd" d="M294.541 218.892L147.827 239.942C146.521 240.142 145.757 241.376 146.021 242.741L184.784 451.764C185.049 453.129 186.285 453.989 187.591 453.789L334.385 432.588C335.692 432.388 336.456 431.153 336.192 429.788L297.429 220.765C297.083 219.551 295.847 218.692 294.541 218.892Z" fill="#FAFBFC"/>
<path opacity="0.8" d="M289.354 227.761L155.922 247.023C155.194 247.077 154.57 247.495 154.245 248.098C153.921 248.7 153.747 249.395 153.839 250.153L189.606 442.977C189.697 443.735 190.136 444.405 190.736 444.774C191.337 445.143 192.019 445.361 192.747 445.307L326.213 426.167C326.941 426.113 327.566 425.695 327.89 425.092C328.215 424.49 328.389 423.795 328.297 423.037L292.495 230.091C292.404 229.333 291.965 228.663 291.365 228.294C290.764 227.925 290.083 227.707 289.354 227.761ZM327.222 423.179C327.36 423.664 327.233 424.087 326.955 424.418C326.677 424.748 326.365 424.957 325.902 425.074L192.586 444.307C192.124 444.424 191.708 444.268 191.373 443.963C191.038 443.657 190.819 443.322 190.681 442.836L154.879 249.89C154.741 249.404 154.868 248.981 155.146 248.651C155.424 248.32 155.736 248.111 156.199 247.995L289.631 228.732C290.093 228.616 290.509 228.771 290.844 229.077C291.179 229.383 291.398 229.718 291.536 230.203L327.222 423.179Z" fill="#F58A6B"/>
<path fill-rule="evenodd" clip-rule="evenodd" d="M215.338 192.309C212.48 192.769 210.63 195.458 211.231 198.442C211.831 201.427 214.536 203.489 217.394 203.029C220.252 202.569 222.102 199.88 221.501 196.896C220.935 194.033 218.196 191.849 215.338 192.309Z" fill="#FAFBFC"/>
<path fill-rule="evenodd" clip-rule="evenodd" d="M255.879 200.936L179.528 211.939C177.845 212.233 176.667 213.864 176.959 215.788L181.147 238.168C181.521 239.938 183.155 241.255 184.99 241.055L261.341 230.052C263.024 229.758 264.202 228.127 263.91 226.203L259.806 203.668C259.313 201.929 257.562 200.642 255.879 200.936Z" fill="#F58A6B"/>
<path opacity="0.8" fill-rule="evenodd" clip-rule="evenodd" d="M214.652 210.823L185.744 214.966C184.422 215.168 183.532 216.446 183.8 217.827L187.032 234.917C187.299 236.298 188.584 237.29 189.905 237.088L218.813 232.945C220.135 232.743 221.025 231.464 220.757 230.084L217.526 212.993C217.258 211.613 215.973 210.621 214.652 210.823Z" fill="#F36F49"/>
<path opacity="0.2" d="M211.061 264.88L211.462 267.285L292.024 254.335L291.623 251.93L211.061 264.88Z" fill="#EE4D47"/>
<path opacity="0.2" d="M211.911 270.125L212.312 272.53L292.873 259.578L292.473 257.172L211.911 270.125Z" fill="#EE4D47"/>
<path opacity="0.2" d="M252.971 268.617L253.371 270.977L293.674 264.615L293.273 262.254L252.971 268.617Z" fill="#EE4D47"/>
<path opacity="0.2" d="M212.757 275.276L213.157 277.632L250.907 271.685L250.506 269.329L212.757 275.276Z" fill="#EE4D47"/>
<path opacity="0.2" d="M216.622 299.144L217.022 301.549L297.584 288.599L297.183 286.193L216.622 299.144Z" fill="#EE4D47"/>
<path opacity="0.2" d="M217.471 304.387L217.872 306.792L298.434 293.843L298.033 291.438L217.471 304.387Z" fill="#EE4D47"/>
<path opacity="0.2" d="M258.655 302.862L259.056 305.222L299.358 298.86L298.958 296.499L258.655 302.862Z" fill="#EE4D47"/>
<path opacity="0.2" d="M218.32 309.54L218.721 311.896L256.47 305.949L256.07 303.594L218.32 309.54Z" fill="#EE4D47"/>
<path opacity="0.2" d="M221.678 329.874L222.079 332.279L302.641 319.328L302.24 316.923L221.678 329.874Z" fill="#EE4D47"/>
<path opacity="0.2" d="M222.528 335.117L222.929 337.522L303.49 324.572L303.09 322.167L222.528 335.117Z" fill="#EE4D47"/>
<path opacity="0.2" d="M263.711 333.591L264.111 335.952L304.414 329.591L304.014 327.23L263.711 333.591Z" fill="#EE4D47"/>
<path opacity="0.2" d="M223.375 340.27L223.775 342.625L261.525 336.679L261.125 334.324L223.375 340.27Z" fill="#EE4D47"/>
<path opacity="0.2" d="M226.847 361.527L227.248 363.932L307.81 350.981L307.409 348.576L226.847 361.527Z" fill="#EE4D47"/>
<path opacity="0.2" d="M227.718 366.892L228.119 369.298L308.681 356.347L308.28 353.942L227.718 366.892Z" fill="#EE4D47"/>
<path opacity="0.2" d="M268.9 365.366L269.301 367.727L309.603 361.364L309.203 359.003L268.9 365.366Z" fill="#EE4D47"/>
<path opacity="0.2" d="M228.564 372.046L228.965 374.401L266.714 368.455L266.314 366.099L228.564 372.046Z" fill="#EE4D47"/>
<path opacity="0.2" d="M231.939 392.977L232.34 395.382L312.901 382.433L312.501 380.027L231.939 392.977Z" fill="#EE4D47"/>
<path opacity="0.2" d="M232.789 398.22L233.189 400.625L313.751 387.674L313.35 385.269L232.789 398.22Z" fill="#EE4D47"/>
<path opacity="0.2" d="M273.972 396.693L274.372 399.054L314.675 392.692L314.274 390.331L273.972 396.693Z" fill="#EE4D47"/>
<path opacity="0.2" d="M233.758 403.353L234.158 405.709L271.908 399.763L271.507 397.407L233.758 403.353Z" fill="#EE4D47"/>
<path opacity="0.2" d="M172.956 265.123L171.991 265.235L172.153 266.241L175.656 285.111L175.818 286.117L176.783 286.004L196.182 283.201L197.148 283.088L196.986 282.083L193.483 263.213L193.321 262.207L192.356 262.32L172.956 265.123ZM194.928 281.425L177.308 283.909L174.094 266.929L191.598 264.474L194.928 281.425Z" fill="#EE4D47"/>
<path opacity="0.2" d="M178.596 300.044L177.631 300.157L177.909 301.133L181.412 320.003L181.573 321.009L182.539 320.896L201.938 318.094L202.904 317.981L202.742 316.975L199.239 298.105L199.077 297.099L198.112 297.212L178.596 300.044ZM200.568 316.346L183.064 318.801L179.85 301.821L197.354 299.366L200.568 316.346Z" fill="#EE4D47"/>
<path opacity="0.2" d="M184.084 333.476L183.119 333.589L183.281 334.594L186.784 353.464L186.945 354.47L187.911 354.357L207.31 351.554L208.276 351.441L208.114 350.436L204.611 331.566L204.449 330.561L203.484 330.673L184.084 333.476ZM206.056 349.778L188.553 352.232L185.338 335.252L202.842 332.798L206.056 349.778Z" fill="#EE4D47"/>
<path opacity="0.2" d="M189.641 367.143L188.675 367.256L188.837 368.262L192.375 387.252L192.536 388.258L193.502 388.145L212.899 385.342L213.864 385.23L213.703 384.224L210.2 365.356L210.038 364.35L209.073 364.463L189.641 367.143ZM211.611 383.444L194.109 385.899L190.894 368.92L208.396 366.465L211.611 383.444Z" fill="#EE4D47"/>
<path opacity="0.2" d="M194.996 399.586L194.031 399.698L194.193 400.704L197.696 419.574L197.858 420.579L198.823 420.467L218.222 417.664L219.188 417.551L219.026 416.546L215.523 397.676L215.361 396.67L214.396 396.783L194.996 399.586ZM216.934 415.765L199.43 418.22L196.216 401.24L213.719 398.785L216.934 415.765Z" fill="#EE4D47"/>
<path d="M185.601 274.514L175.201 267.924L174.1 269.783L185.528 276.903L186.439 277.463L186.932 276.548L200.123 253.728L198.3 252.608L185.601 274.514Z" fill="#EE4D47"/>
<path d="M191.496 310.396L181.097 303.806L179.996 305.665L191.423 312.785L192.3 313.222L192.827 312.43L205.983 289.487L204.16 288.367L191.496 310.396Z" fill="#F58A6B"/>
<path d="M202.774 378.833L192.259 372.274L191.275 374.102L202.584 381.251L203.496 381.811L203.988 380.897L217.295 358.049L215.437 356.807L202.774 378.833Z" fill="#F58A6B"/>
<path fill-rule="evenodd" clip-rule="evenodd" d="M173.059 484.894C172.014 485.158 171.444 486.215 171.756 487.311C172.068 488.406 173.123 489.053 174.168 488.79C175.213 488.526 175.784 487.468 175.472 486.373C175.16 485.277 174.104 484.63 173.059 484.894Z" fill="#FAFBFC"/>
<path d="M202.524 476.541C203.251 476.222 203.556 475.346 203.204 474.584C202.853 473.823 201.978 473.465 201.251 473.784C200.524 474.103 200.219 474.979 200.571 475.741C200.922 476.502 201.797 476.861 202.524 476.541Z" fill="#FAFBFC"/>
<path d="M243.305 464.446C243.882 464.301 244.211 463.692 244.039 463.087C243.866 462.482 243.259 462.11 242.681 462.256C242.104 462.402 241.775 463.01 241.947 463.615C242.12 464.22 242.727 464.592 243.305 464.446Z" fill="#FAFBFC"/>
<path fill-rule="evenodd" clip-rule="evenodd" d="M264.455 460.227C263.526 460.461 263.037 461.368 263.314 462.342C263.592 463.316 264.496 463.87 265.425 463.636C266.354 463.401 266.843 462.495 266.566 461.521C266.323 460.669 265.384 459.992 264.455 460.227Z" fill="#FAFBFC"/>
<path fill-rule="evenodd" clip-rule="evenodd" d="M296.734 452.995C296.386 453.083 296.223 453.385 296.327 453.75C296.431 454.116 296.732 454.301 297.081 454.213C297.43 454.125 297.593 453.822 297.489 453.457C297.501 453.063 297.083 452.907 296.734 452.995Z" fill="#FAFBFC"/>
<path fill-rule="evenodd" clip-rule="evenodd" d="M363.351 431.13C362.77 431.277 362.56 431.852 362.699 432.339C362.872 432.947 363.441 433.195 363.906 433.078C364.487 432.931 364.697 432.356 364.558 431.87C364.536 431.353 363.932 430.984 363.351 431.13Z" fill="#FAFBFC"/>
<path d="M474.479 239.141C474.479 228.095 465.525 219.141 454.479 219.141H379C367.954 219.141 359 228.095 359 239.141V249.659C359 260.704 367.954 269.659 379 269.659H474.479V239.141Z" fill="white"/>
<ellipse rx="3.82803" ry="3.83459" transform="matrix(-1 0 0 1 448.321 244.718)" fill="#F4A984"/>
<ellipse rx="3.82806" ry="3.83459" transform="matrix(-1 0 0 1 432.37 244.718)" fill="#F4A984"/>
<ellipse rx="3.82803" ry="3.83459" transform="matrix(-1 0 0 1 416.42 244.718)" fill="#F4A984"/>
<ellipse rx="3.82806" ry="3.83459" transform="matrix(-1 0 0 1 400.47 244.718)" fill="#F4A984"/>
<ellipse rx="3.82812" ry="3.83459" transform="matrix(-1 0 0 1 384.52 244.718)" fill="#F4A984"/>
<path d="M325 401.552C281.4 401.552 303.5 338.552 320 307.051C328.833 300.385 350.5 286.952 366.5 286.552C382.5 286.152 392.5 306.052 395.5 316.052C393.667 316.218 391.8 323.852 399 353.052C406.2 382.252 402.667 397.552 400 401.552H325Z" fill="#402B2B"/>
<path d="M370.599 392.071C366.487 384.866 369.571 373.714 369.571 373.714L356.891 376.288L344.211 373.714C344.211 373.714 345.753 379.033 345.239 384.866C349.694 390.013 359.976 399.62 370.599 392.071Z" fill="url(#paint2_linear_413_1263)"/>
<path d="M368.797 372.285C366.022 373.957 362.515 375.504 358.59 376.691C353.666 378.18 348.975 378.831 345.292 378.691C345.629 373.158 344.211 368.277 344.211 368.277L356.891 370.845L369.571 368.277C369.571 368.277 369.124 369.89 368.797 372.285Z" fill="url(#paint3_linear_413_1263)" style="mix-blend-mode:multiply"/>
<path d="M325.876 402.199C333.244 408.718 347.809 422.958 357.062 422.958C366.316 422.958 382.766 409.405 390.134 402.885C386.535 401.513 375.569 397.224 372.998 394.993C372.142 394.136 371.285 393.106 370.771 392.077C360.147 399.626 349.866 390.018 345.41 384.7C345.068 388.474 344.04 392.248 341.127 394.822C338.213 397.224 329.303 400.827 325.876 402.199Z" fill="url(#paint4_linear_413_1263)"/>
<path d="M391.776 334.775C390.576 332.545 388.692 332.202 387.492 332.545C387.492 332.545 384.065 321.565 381.666 313.502C373.612 309.727 366.073 306.467 356.991 305.781V305.61C355.62 305.61 353.221 305.61 351.85 305.61C346.196 305.781 340.541 305.953 335.058 306.982C333.687 307.325 332.316 307.668 330.945 307.668C329.232 316.761 326.319 332.717 325.119 332.545H324.948C324.776 332.545 324.776 332.545 324.605 332.374C323.406 332.03 322.035 332.374 320.835 334.432C318.779 338.207 320.835 345.756 323.577 347.986C324.948 349.015 326.147 349.873 327.004 350.388C328.375 357.25 330.774 363.77 334.372 367.716C343.797 377.838 352.536 380.068 354.935 380.411C355.106 380.411 355.449 380.411 355.62 380.411C355.62 380.411 355.792 380.411 355.963 380.411C357.676 380.24 367.101 378.524 377.211 367.544C380.809 363.77 383.38 361.025 384.922 350.902C385.95 350.388 386.978 349.53 388.692 348.157C391.776 346.099 393.832 338.55 391.776 334.775Z" fill="url(#paint5_linear_413_1263)"/>
<path d="M356.736 344.427C356.736 344.427 356.868 348.293 355.825 349.565C354.782 350.837 352.803 352.069 352.64 353.019C352.449 353.789 353.277 355.141 354.722 355.472C356.167 355.804 356.402 356.322 356.402 356.322C356.402 356.322 353.735 357.106 352.067 355.329C350.399 353.552 351.661 351.691 352.883 350.576C354.105 349.461 354.654 349.006 355.176 348.37C355.849 347.711 356.736 344.427 356.736 344.427Z" fill="#D87C60"/>
<path d="M367.066 356.052H346.364C345.689 356.052 345.212 356.707 345.483 357.326C346.943 360.661 350.524 365.552 356.5 365.552C362.451 365.552 366.284 360.701 367.929 357.367C368.237 356.743 367.762 356.052 367.066 356.052Z" fill="#D87C60"/>
<path fill-rule="evenodd" clip-rule="evenodd" d="M366.976 359.052H346.367C346.015 358.454 345.721 357.869 345.484 357.326C345.213 356.707 345.689 356.052 346.365 356.052H367.066C367.762 356.052 368.238 356.743 367.93 357.367C367.667 357.898 367.349 358.469 366.976 359.052Z" fill="white"/>
<path d="M376.598 293.257C402.13 296.517 396.132 327.742 391.163 333.232L387.5 339.417C385.667 336.243 381.9 327.489 381.5 317.867C377.667 320.373 366.2 325.384 351 325.384C332 325.384 326.792 328.536 325 337.412C320.545 327.461 317.481 307.326 328.447 296.002C343.526 280.218 366.316 276.444 376.598 293.257Z" fill="#402B2B"/>
<path d="M325.019 337.35L325.875 344.726C325.875 344.726 323.305 343.354 322.791 339.923C322.62 337.864 323.477 336.492 325.019 337.35Z" fill="#ED8A40"/>
<path d="M387.219 337.35L386.362 344.726C386.362 344.726 388.933 343.354 389.447 339.923C389.618 337.864 388.933 336.492 387.219 337.35Z" fill="#ED8A40"/>
<path d="M373.685 345.686C373.685 347.227 372.486 348.597 370.772 348.597C369.23 348.597 367.859 347.399 367.859 345.686C367.859 344.144 369.059 342.774 370.772 342.774C372.486 342.774 373.685 344.144 373.685 345.686Z" fill="#402B2B"/>
<path d="M343.184 348.597C344.792 348.597 346.097 347.294 346.097 345.686C346.097 344.078 344.792 342.774 343.184 342.774C341.575 342.774 340.271 344.078 340.271 345.686C340.271 347.294 341.575 348.597 343.184 348.597Z" fill="#402B2B"/>
<path d="M335.541 334.912C336.79 333.55 340.446 330.825 345.078 330.825" stroke="#402B2B" stroke-width="2"/>
<path d="M368.58 330.942C370.427 330.862 374.939 331.52 378.215 334.796" stroke="#402B2B" stroke-width="2"/>
<path d="M418.065 441.144C418.75 422.615 413.096 411.635 404.528 407.003C395.96 402.371 375.741 396.538 375.055 396.366L356.72 410.949L339.242 396.366C338.557 396.538 317.823 402.371 309.427 407.003C300.859 411.635 295.204 422.615 295.89 441.144C296.404 456.07 295.375 479.574 295.547 496.73H418.579C418.579 479.574 417.551 456.07 418.065 441.144Z" fill="url(#paint6_linear_413_1263)"/>
<path d="M366.83 402.715L362.032 400.484L356.548 410.606L351.065 400.484L346.096 402.715L353.293 414.381V496.73H359.975V413.866L366.83 402.715Z" fill="#EE4D47" fill-opacity="0.29" style="mix-blend-mode:multiply"/>
<path d="M345.239 384.7C345.068 389.675 352.094 402.543 352.094 402.543L339.927 414.381L335.986 397.224C335.986 397.224 339.927 386.759 345.239 384.7Z" fill="white"/>
<path d="M368.543 384.7C368.714 389.675 360.832 402.715 360.832 402.715L373.684 414.381L377.625 397.053C377.625 397.053 373.855 386.759 368.543 384.7Z" fill="white"/>
<path d="M358.607 417.293C358.607 418.32 357.75 419.176 356.722 419.176C355.694 419.176 354.837 418.32 354.837 417.293C354.837 416.266 355.694 415.41 356.722 415.41C357.75 415.41 358.607 416.266 358.607 417.293Z" fill="white"/>
<path d="M358.606 434.792C358.606 435.819 357.749 436.675 356.721 436.675C355.693 436.675 354.836 435.819 354.836 434.792C354.836 433.765 355.693 432.909 356.721 432.909C357.749 432.909 358.606 433.594 358.606 434.792Z" fill="white"/>
<path d="M358.606 451.948C358.606 452.975 357.749 453.831 356.721 453.831C355.693 453.831 354.836 452.975 354.836 451.948C354.836 450.921 355.693 450.065 356.721 450.065C357.749 450.065 358.606 450.921 358.606 451.948Z" fill="white"/>
<path d="M358.606 470.993C358.606 472.02 357.749 472.876 356.721 472.876C355.693 472.876 354.836 472.02 354.836 470.993C354.836 469.966 355.693 469.11 356.721 469.11C357.749 469.11 358.606 469.966 358.606 470.993Z" fill="white"/>
<path d="M298.631 412.149C298.631 412.149 280.467 461.045 279.097 469.109C277.897 477.172 288.178 495.872 292.976 496.559C300.002 497.588 305.656 495.529 312.682 483.52C319.536 471.51 318.337 420.213 318.337 420.213L298.631 412.149Z" fill="url(#paint7_linear_413_1263)"/>
<path d="M318.509 415.409C318.509 415.409 317.309 474.427 314.739 481.805C310.626 493.643 300.174 496.902 300.174 496.902H311.826C311.826 496.902 320.908 490.898 321.764 472.883C322.278 462.075 320.394 427.59 319.365 416.095C319.023 413.007 318.509 415.409 318.509 415.409Z" fill="#EE4D47" fill-opacity="0.29" style="mix-blend-mode:multiply"/>
<path d="M322.535 409.842L302.834 401.873L298.726 412.053L318.427 420.022L322.535 409.842Z" fill="white"/>
<path d="M396.989 423.816C396.989 423.816 389.963 457.271 389.449 470.996C388.935 484.721 389.449 496.559 389.449 496.559L394.418 496.902C394.418 496.902 395.618 436.855 396.989 423.816Z" fill="#EE4D47" fill-opacity="0.29" style="mix-blend-mode:multiply"/>
<path d="M337.356 377.495C327.931 377.495 324.847 372.862 322.962 365.828C322.105 362.053 321.763 351.931 321.763 351.588H324.504C324.504 351.759 324.847 361.882 325.704 365.313C327.417 372.005 329.988 375.436 339.241 374.75L339.412 377.495C338.727 377.495 338.041 377.495 337.356 377.495Z" fill="white"/>
<path d="M356.72 284.16C349.18 283.474 331.874 283.989 323.991 299.087C323.991 299.087 326.047 302.69 328.446 300.288C337.014 292.567 349.009 292.396 356.377 292.396C363.917 292.396 376.426 292.396 384.822 300.288C387.392 302.518 389.277 299.087 389.277 299.087C381.566 283.989 364.259 283.474 356.72 284.16Z" fill="white"/>
<path d="M397.33 335.975C397.33 335.975 396.988 325.51 396.816 322.594C396.474 316.932 395.617 307.668 393.732 302.692C387.563 285.708 367.515 282.448 357.062 282.448C346.438 282.448 326.047 285.708 319.878 302.521C318.165 307.324 317.308 315.903 316.794 321.736C316.623 325.167 316.451 335.804 316.451 335.804H319.364C319.364 335.804 319.364 325.167 319.707 321.736C320.05 317.275 320.906 310.756 323.134 304.579C328.275 289.997 347.295 288.453 356.548 288.453C365.972 288.453 385.335 289.997 390.476 304.579C392.875 311.442 393.732 318.476 394.075 322.937C394.246 325.853 394.417 335.975 394.417 335.975H397.33Z" fill="url(#paint8_linear_413_1263)"/>
<path d="M320.05 333.91H316.28V350.038H320.05V333.91Z" fill="white"/>
<path d="M326.733 353.133H322.449C320.393 353.133 318.68 351.417 318.68 349.358V334.603C318.68 332.545 320.393 330.829 322.449 330.829H326.733C327.247 330.829 327.59 331.172 327.59 331.687V352.104C327.59 352.618 327.247 353.133 326.733 353.133Z" fill="url(#paint9_linear_413_1263)"/>
<path d="M314.738 351.413H314.567C313.71 351.413 313.024 350.726 313.024 349.869V333.742C313.024 332.884 313.71 332.198 314.567 332.198H314.738C315.595 332.198 316.28 332.884 316.28 333.742V349.869C316.28 350.726 315.595 351.413 314.738 351.413Z" fill="url(#paint10_linear_413_1263)"/>
<path d="M393.177 350.323H396.947V334.197H393.177V350.323Z" fill="white"/>
<path d="M386.707 353.474H390.991C393.047 353.474 394.76 351.759 394.76 349.7V334.946C394.76 332.887 393.047 331.171 390.991 331.171H386.707C386.193 331.171 385.85 331.514 385.85 332.029V352.445C385.679 352.96 386.193 353.474 386.707 353.474Z" fill="url(#paint11_linear_413_1263)"/>
<path d="M398.53 351.756H398.702C399.559 351.756 400.244 351.07 400.244 350.212V334.085C400.244 333.227 399.559 332.541 398.702 332.541H398.53C397.674 332.541 396.988 333.227 396.988 334.085V350.212C396.988 351.07 397.674 351.756 398.53 351.756Z" fill="url(#paint12_linear_413_1263)"/>
<path d="M347.467 375.775C347.467 377.489 345.411 379.031 342.669 379.031C340.099 379.031 337.871 377.66 337.871 375.775C337.871 373.89 339.927 372.519 342.669 372.519C345.239 372.519 347.467 373.89 347.467 375.775Z" fill="url(#paint13_linear_413_1263)"/>
<path fill-rule="evenodd" clip-rule="evenodd" d="M311.655 364.799L311.657 364.797C313.25 363.303 315.073 362.272 316.825 361.401C319.978 359.356 323.657 357.029 325.02 356.392C327.762 355.02 329.475 357.422 325.534 360.853C324.679 361.598 323.686 362.391 322.656 363.176C324.796 362.355 326.691 361.649 327.59 361.368C330.503 360.51 331.874 363.255 327.247 365.829C325.365 366.875 323.002 368.007 320.86 368.982L321.593 371.319C321.593 371.319 323.65 369.432 324.335 368.917C328.619 366 330.846 368.402 328.962 370.976C326.905 373.549 323.821 380.927 324.849 386.074C325.534 389.505 325.02 394.309 324.164 398.084C323.307 401.687 317.995 412.324 317.995 412.324L304.287 407.52C304.287 407.52 307.371 404.26 306.857 396.368C306.705 393.781 305.677 391.059 304.654 388.352C303.371 384.955 302.096 381.58 302.573 378.525C303.43 373.721 310.455 366 311.655 364.799L311.655 364.799L311.655 364.799Z" fill="url(#paint14_linear_413_1263)"/>
<path opacity="0.3" d="M323.992 385.386C324.335 381.097 323.992 380.239 323.649 378.181C323.306 375.779 323.821 372.691 322.792 370.46C321.593 368.058 319.708 366.686 316.452 367.372C312.168 368.402 310.455 370.632 310.455 370.632C310.455 370.632 313.882 369.259 315.596 368.745C318.166 368.058 320.736 368.23 321.764 371.318C322.278 373.205 322.621 375.779 322.964 377.666C323.135 379.038 324.163 385.043 323.306 385.215C322.45 385.215 320.565 384.7 319.708 381.612C319.537 382.298 319.365 386.93 318.851 386.93C315.767 386.587 315.424 384.185 315.253 381.612C315.253 380.411 315.081 378.695 314.739 376.465C313.539 378.352 310.626 380.068 309.427 380.926C310.798 382.127 313.368 385.043 314.396 386.244C316.281 388.474 317.994 391.906 318.337 395.509C322.964 391.048 320.393 386.416 320.222 384.872C321.422 386.244 323.821 387.274 323.992 385.386Z" fill="#EB5046"/>
<path d="M518.309 385.386C518.309 382.813 516.252 380.926 513.511 380.926H386.88C384.31 380.926 382.082 382.985 382.082 385.386V464.305H518.137V385.386H518.309Z" fill="url(#paint15_linear_413_1263)"/>
<path d="M387.051 479.231H513.682C516.252 479.231 518.479 477.172 518.479 474.77V464.476H382.424V474.77C382.253 477.172 384.481 479.231 387.051 479.231Z" fill="#CA3F3A"/>
<path d="M470.159 477.344H436.23V493.471H470.159V477.344Z" fill="#CA3F3A"/>
<path d="M474.27 477.344H440.342V493.471H474.27V477.344Z" fill="url(#paint16_linear_413_1263)"/>
<path d="M468.616 491.926H426.634V496.548H468.616V491.926Z" fill="url(#paint17_linear_413_1263)"/>
<path d="M482.324 491.926H440.342V496.548H482.324V491.926Z" fill="url(#paint18_linear_413_1263)"/>
<path d="M525.335 385.386C525.335 382.813 523.278 380.926 520.537 380.926H394.077C391.507 380.926 389.279 382.985 389.279 385.386V464.305H525.335V385.386Z" fill="url(#paint19_linear_413_1263)"/>
<path d="M394.077 479.231H520.708C523.278 479.231 525.506 477.172 525.506 474.77V464.476H389.45V474.77C389.279 477.172 391.335 479.231 394.077 479.231Z" fill="url(#paint20_linear_413_1263)"/>
<path opacity="0.2" d="M469.644 415.41C469.644 422.273 464.16 427.763 457.306 427.763C450.452 427.763 444.969 422.273 444.969 415.41C444.969 408.547 450.452 403.057 457.306 403.057C464.16 403.057 469.644 408.547 469.644 415.41Z" fill="white"/>
<path d="M354.664 491.926H325.362V496.376H354.664V491.926Z" fill="url(#paint21_linear_413_1263)"/>
<path d="M403.329 491.926H341.812V496.376H403.329V491.926Z" fill="url(#paint22_linear_413_1263)"/>
<g clip-path="url(#clip0_413_1263)">
<path d="M594 457.023H514V490.954H594V457.023Z" fill="#FCDDD4"/>
<path fill-rule="evenodd" clip-rule="evenodd" d="M554.445 448.177V448.254C555.079 446.485 556.35 443.669 558.488 439.469C562.73 431.427 567.465 425.249 567.465 425.249C567.465 425.249 565.393 432.114 561.152 440.155C557.401 447.352 555.347 450.256 554.445 450.696V451.107C555.532 449.677 557.924 447.227 562.138 443.392C569.142 437.115 576.047 432.604 576.047 432.604C576.047 432.604 571.608 438.39 564.604 444.764C560.497 448.451 557.775 450.661 556.076 451.794C557.806 450.725 560.496 449.259 564.407 447.314C573.088 442.999 580.979 440.351 580.979 440.351C580.979 440.351 574.864 444.764 566.183 449.079C559.572 452.44 555.993 453.867 554.445 454.14V454.435C555.837 453.664 559.398 452.428 566.183 450.55C575.751 447.903 584.136 446.726 584.136 446.726C584.136 446.726 576.836 449.962 567.268 452.61C564.148 453.473 561.658 454.107 559.708 454.549C561.683 454.221 564.235 453.866 567.465 453.492C577.625 452.218 586.108 452.316 586.108 452.316C586.108 452.316 578.118 454.473 567.958 455.65C559.778 456.676 555.754 456.813 554.445 456.52V456.729H553.458V456.588C553.276 456.641 553.022 456.685 552.668 456.729H549.808C547.638 456.631 544.382 456.434 539.845 455.846C529.684 454.571 521.694 452.512 521.694 452.512C521.694 452.512 530.178 452.414 540.338 453.689C543.391 454.042 545.838 454.369 547.765 454.67C545.867 454.232 543.481 453.621 540.535 452.806C530.868 450.158 523.667 446.922 523.667 446.922C523.667 446.922 532.052 448.099 541.62 450.746C548.574 452.671 552.141 453.922 553.458 454.687V454.341C551.966 454.091 548.377 452.634 541.621 449.276C532.94 444.961 526.824 440.548 526.824 440.548C526.824 440.548 534.716 443.195 543.396 447.51C547.063 449.333 549.656 450.736 551.391 451.785C549.663 450.599 547.017 448.436 543.199 444.961C536.195 438.586 531.756 432.8 531.756 432.8C531.756 432.8 538.661 437.213 545.665 443.588C548.675 446.328 550.756 448.361 552.096 449.82C550.945 448.331 549.158 445.39 546.552 440.45C542.311 432.408 540.239 425.543 540.239 425.543C540.239 425.543 545.073 431.722 549.216 439.763C551.606 444.403 552.913 447.377 553.458 449.101V448.179C552.928 446.962 552.57 443.445 552.57 436.429C552.57 427.407 553.951 420.052 553.951 420.052C553.951 420.052 555.332 427.407 555.332 436.429C555.332 443.441 554.974 446.958 554.445 448.177ZM553.458 451.049C553.312 451.038 553.121 450.928 552.879 450.706C553.106 450.976 553.298 451.219 553.458 451.436V451.049ZM553.458 452.91C553.217 452.847 552.905 452.711 552.515 452.493C552.893 452.744 553.206 452.967 553.458 453.165V452.91ZM554.445 452.892C554.716 452.686 555.049 452.452 555.45 452.191C555.037 452.437 554.704 452.598 554.445 452.683V452.892ZM553.458 455.57C553.14 455.592 552.692 455.57 552.096 455.497C552.727 455.658 553.173 455.808 553.458 455.947V455.57ZM554.445 455.79C554.815 455.62 555.403 455.432 556.246 455.228C555.443 455.347 554.851 455.394 554.445 455.379V455.79Z" fill="#F37753"/>
<path d="M548.624 456.729H530.178C533.039 456.532 536.491 456.434 540.141 456.434C543.692 456.434 546.553 456.532 548.624 456.729Z" fill="#F37753"/>
<path d="M559.179 456.729H577.625C574.765 456.532 571.312 456.336 567.662 456.434C564.012 456.532 561.25 456.63 559.179 456.729Z" fill="#F37753"/>
</g>
<path d="M427 295.052C427 284.006 435.954 275.052 447 275.052H559.619C570.664 275.052 579.619 284.006 579.619 295.052V321.664C579.619 332.71 570.664 341.664 559.619 341.664H427V295.052Z" fill="#F69477"/>
<circle opacity="0.5" cx="461.571" cy="308.78" r="5.05919" fill="white"/>
<circle opacity="0.5" cx="482.651" cy="308.78" r="5.05919" fill="white"/>
<circle opacity="0.5" cx="503.731" cy="308.78" r="5.05919" fill="white"/>
<circle opacity="0.5" cx="524.811" cy="308.78" r="5.05919" fill="white"/>
<circle opacity="0.5" cx="545.891" cy="308.78" r="5.05919" fill="white"/>
<defs>
<linearGradient id="paint0_linear_413_1263" x1="310.409" y1="174.118" x2="227.957" y2="324.965" gradientUnits="userSpaceOnUse">
<stop stop-color="#F37753"/>
<stop offset="1" stop-color="white" stop-opacity="0"/>
</linearGradient>
<linearGradient id="paint1_linear_413_1263" x1="218.81" y1="142.759" x2="260.453" y2="475.734" gradientUnits="userSpaceOnUse">
<stop stop-color="#F7A58D"/>
<stop offset="1" stop-color="#F58A6B"/>
</linearGradient>
<linearGradient id="paint2_linear_413_1263" x1="371.788" y1="384.009" x2="368.72" y2="350.147" gradientUnits="userSpaceOnUse">
<stop stop-color="#FFB3B6"/>
<stop offset="1" stop-color="#FFC8C1"/>
</linearGradient>
<linearGradient id="paint3_linear_413_1263" x1="344.38" y1="374.589" x2="373.114" y2="384.937" gradientUnits="userSpaceOnUse">
<stop stop-color="#FFB3B6" stop-opacity="0.31"/>
<stop offset="1" stop-color="#FFC8C1"/>
</linearGradient>
<linearGradient id="paint4_linear_413_1263" x1="397.363" y1="438.05" x2="391.206" y2="374.707" gradientUnits="userSpaceOnUse">
<stop stop-color="#FFB3B6"/>
<stop offset="1" stop-color="white"/>
</linearGradient>
<linearGradient id="paint5_linear_413_1263" x1="395.873" y1="371.346" x2="389.962" y2="320.603" gradientUnits="userSpaceOnUse">
<stop stop-color="#FFB3B6"/>
<stop offset="1" stop-color="#FFC8C1"/>
</linearGradient>
<linearGradient id="paint6_linear_413_1263" x1="357.053" y1="373.134" x2="357.053" y2="499.478" gradientUnits="userSpaceOnUse">
<stop stop-color="#F4A984"/>
<stop offset="1" stop-color="#EE4D47"/>
</linearGradient>
<linearGradient id="paint7_linear_413_1263" x1="298.709" y1="392.557" x2="298.709" y2="499.108" gradientUnits="userSpaceOnUse">
<stop stop-color="#F4A984"/>
<stop offset="1" stop-color="#EE4D47"/>
</linearGradient>
<linearGradient id="paint8_linear_413_1263" x1="356.891" y1="270.058" x2="356.891" y2="337.441" gradientUnits="userSpaceOnUse">
<stop stop-color="#F4A984"/>
<stop offset="1" stop-color="#EE4D47"/>
</linearGradient>
<linearGradient id="paint9_linear_413_1263" x1="323.135" y1="325.666" x2="323.135" y2="353.744" gradientUnits="userSpaceOnUse">
<stop stop-color="#F4A984"/>
<stop offset="1" stop-color="#EE4D47"/>
</linearGradient>
<linearGradient id="paint10_linear_413_1263" x1="314.652" y1="327.751" x2="314.652" y2="351.939" gradientUnits="userSpaceOnUse">
<stop stop-color="#F4A984"/>
<stop offset="1" stop-color="#EE4D47"/>
</linearGradient>
<linearGradient id="paint11_linear_413_1263" x1="390.288" y1="326.009" x2="390.288" y2="354.085" gradientUnits="userSpaceOnUse">
<stop stop-color="#F4A984"/>
<stop offset="1" stop-color="#EE4D47"/>
</linearGradient>
<linearGradient id="paint12_linear_413_1263" x1="398.616" y1="328.093" x2="398.616" y2="352.282" gradientUnits="userSpaceOnUse">
<stop stop-color="#F4A984"/>
<stop offset="1" stop-color="#EE4D47"/>
</linearGradient>
<linearGradient id="paint13_linear_413_1263" x1="342.669" y1="371.012" x2="342.669" y2="379.209" gradientUnits="userSpaceOnUse">
<stop stop-color="#F4A984"/>
<stop offset="1" stop-color="#EE4D47"/>
</linearGradient>
<linearGradient id="paint14_linear_413_1263" x1="316" y1="410.08" x2="338.598" y2="325.91" gradientUnits="userSpaceOnUse">
<stop stop-color="#FFB3B6"/>
<stop offset="0.239165" stop-color="#FFC5C7"/>
<stop offset="1" stop-color="white"/>
</linearGradient>
<linearGradient id="paint15_linear_413_1263" x1="431.105" y1="632.349" x2="431.105" y2="146.165" gradientUnits="userSpaceOnUse">
<stop stop-color="#FFEDBA"/>
<stop offset="0.423008" stop-color="#F16D5E"/>
<stop offset="0.651925" stop-color="#EE4D47"/>
</linearGradient>
<linearGradient id="paint16_linear_413_1263" x1="452.551" y1="525.975" x2="452.551" y2="431.935" gradientUnits="userSpaceOnUse">
<stop stop-color="#FFEDBA"/>
<stop offset="1" stop-color="#EE4D47"/>
</linearGradient>
<linearGradient id="paint17_linear_413_1263" x1="441.741" y1="514.037" x2="441.741" y2="487.537" gradientUnits="userSpaceOnUse">
<stop stop-color="#FFEDBA"/>
<stop offset="1" stop-color="#EE4D47"/>
</linearGradient>
<linearGradient id="paint18_linear_413_1263" x1="455.449" y1="505.862" x2="455.449" y2="478.914" gradientUnits="userSpaceOnUse">
<stop stop-color="#FFEDBA"/>
<stop offset="1" stop-color="#EE4D47"/>
</linearGradient>
<linearGradient id="paint19_linear_413_1263" x1="438.24" y1="518.867" x2="438.24" y2="301.738" gradientUnits="userSpaceOnUse">
<stop stop-color="#FFEDBA"/>
<stop offset="1" stop-color="#EE4D47"/>
</linearGradient>
<linearGradient id="paint20_linear_413_1263" x1="438.405" y1="508.968" x2="438.405" y2="422.932" gradientUnits="userSpaceOnUse">
<stop stop-color="#FFEDBA"/>
<stop offset="1" stop-color="#EE4D47"/>
</linearGradient>
<linearGradient id="paint21_linear_413_1263" x1="335.907" y1="513.218" x2="335.907" y2="487.699" gradientUnits="userSpaceOnUse">
<stop stop-color="#FFEDBA"/>
<stop offset="1" stop-color="#EE4D47"/>
</linearGradient>
<linearGradient id="paint22_linear_413_1263" x1="363.95" y1="491.897" x2="363.95" y2="472.481" gradientUnits="userSpaceOnUse">
<stop stop-color="#FFEDBA"/>
<stop offset="1" stop-color="#EE4D47"/>
</linearGradient>
<clipPath id="clip0_413_1263">
<rect width="80" height="71" fill="white" transform="translate(514 420.052)"/>
</clipPath>
</defs>
</svg>
