<svg width="36" height="36" viewBox="0 0 36 36" fill="none" xmlns="http://www.w3.org/2000/svg">
<circle cx="18" cy="18" r="18" fill="#ED4D47"/>
<path fill-rule="evenodd" clip-rule="evenodd" d="M17.9096 13.8962L17.8699 13.243C17.7511 11.55 18.7939 10.0036 20.4438 9.40374C21.051 9.19042 22.0805 9.16375 22.7537 9.35041C23.0177 9.4304 23.5193 9.69697 23.8756 9.93695L24.5224 10.3769L25.2352 10.1503C25.6312 10.0302 26.1592 9.83029 26.3967 9.69697C26.6211 9.57702 26.8191 9.51032 26.8191 9.55035C26.8191 9.77696 26.3307 10.5502 25.9216 10.9767C25.3672 11.5766 25.5256 11.63 26.6475 11.23C27.3207 11.0034 27.3338 11.0034 27.2019 11.2566C27.1226 11.39 26.7135 11.8566 26.2779 12.2831C25.5387 13.0164 25.4992 13.0963 25.4992 13.7096C25.4992 14.656 25.0504 16.629 24.6016 17.7088C23.77 19.735 21.9881 21.8279 20.2062 22.8811C17.6984 24.3608 14.3589 24.7341 11.5475 23.8676C10.6103 23.5743 9 22.8277 9 22.6945C9 22.6545 9.48835 22.6011 10.0824 22.5878C11.3231 22.5612 12.5638 22.2145 13.6197 21.6013L14.3326 21.1748L13.5142 20.8948C12.3526 20.4949 11.3099 19.575 11.0459 18.7086C10.9667 18.4286 10.9931 18.4153 11.7323 18.4153L12.4978 18.402L11.8511 18.0954C11.0855 17.7088 10.3859 17.0555 10.0427 16.389C9.79192 15.9091 9.47521 14.696 9.5676 14.6027C9.59394 14.5627 9.87117 14.6427 10.188 14.7493C11.0987 15.0826 11.2175 15.0026 10.6895 14.4427C9.69953 13.4296 9.39596 11.9232 9.87117 10.4968L10.0956 9.85695L10.9667 10.7234C12.7486 12.4698 14.8473 13.5096 17.2496 13.8162L17.9096 13.8962Z" fill="white"/>
</svg>
